<svg width="4603" height="1033" viewBox="0 0 4603 1033" fill="none" xmlns="http://www.w3.org/2000/svg">
<path d="M0.0617101 700.177V0.44043H253.438V659.218C253.438 723.523 292.406 762.525 362.582 762.525H684.966V994.478H325.537C111.128 994.478 0.0273438 893.127 0.0273438 700.177" fill="#0042C3"/>
<path d="M764.241 700.177V0.44043H1017.62V659.218C1017.62 723.523 1056.58 762.525 1126.76 762.525H1449.15V994.478H1089.72C875.308 994.478 764.207 893.127 764.207 700.177" fill="#0042C3"/>
<path d="M2482.05 645.588V914.551C2394.33 980.813 2259.85 1017.86 2125.37 1017.86C1990.89 1017.86 1860.28 978.89 1762.85 904.8L1668.57 995.164L1562.82 994.478L1560.04 760.671L2096.15 244.066H1608.86V0.44043H2446.96V244.066L1944.09 729.394C2004.52 756.689 2072.74 772.276 2144.83 772.276C2273.48 772.276 2400.17 725.48 2482.02 645.588" fill="#0042C3"/>
<path d="M2663.49 505.853H2712.38L2742.15 605.487C2746.41 619.838 2750.91 638.961 2750.91 638.961H2751.45C2751.45 638.961 2756.23 619.563 2760.21 605.487L2789.7 505.853H2837.25L2774.84 695.782H2726.22L2663.53 505.853H2663.49Z" fill="#010101"/>
<path d="M2821.63 628.044C2821.63 587.119 2850.85 556.048 2894.42 556.048C2937.99 556.048 2966.93 587.119 2966.93 628.044C2966.93 668.968 2938.23 700.04 2894.42 700.04C2850.61 700.04 2821.63 668.968 2821.63 628.044ZM2923.09 628.044C2923.09 603.324 2912.99 586.604 2894.14 586.604C2875.3 586.604 2865.48 603.358 2865.48 628.044C2865.48 652.729 2875.3 669.209 2894.14 669.209C2912.99 669.209 2923.09 652.763 2923.09 628.044Z" fill="#010101"/>
<path d="M2975.51 628.044C2975.51 587.119 3003.67 556.048 3046.72 556.048C3083.63 556.048 3107.28 577.575 3111.27 608.096H3069.55C3066.91 595.874 3059.46 587.909 3047.24 587.909C3028.63 587.909 3019.36 603.324 3019.36 628.009C3019.36 652.695 3028.66 667.561 3047.24 667.561C3060.8 667.561 3069.04 659.596 3070.89 644.18H3112.33C3111.27 675.526 3086.31 699.971 3047.78 699.971C3003.94 699.971 2975.51 668.9 2975.51 627.975V628.044Z" fill="#010101"/>
<path d="M3120.09 627.493C3120.09 586.843 3148.51 555.772 3189.95 555.772C3209.35 555.772 3224.77 562.158 3236.44 572.767C3252.64 587.633 3260.61 611.288 3260.34 638.926H3162.59C3165.23 657.26 3175.33 668.658 3193.15 668.658C3204.58 668.658 3211.99 663.612 3215.74 655.131H3257.97C3255.05 667.354 3247.08 679.027 3235.14 687.267C3223.7 695.232 3209.9 699.764 3192.63 699.764C3147.72 699.764 3120.12 668.693 3120.12 627.493H3120.09ZM3169.49 506.882H3210.93L3239.36 543.275H3202.97L3191.02 525.731H3190.5L3178.28 543.275H3141.1L3169.53 506.882H3169.49ZM3216.49 613.142C3214.91 596.937 3204.82 586.569 3190.74 586.569C3174.26 586.569 3165.78 596.937 3162.86 613.142H3216.53H3216.49Z" fill="#010101"/>
<path d="M3316.23 559.755H3357.67V576.235H3358.46C3367.76 564.013 3381.05 555.773 3399.62 555.773C3435.74 555.773 3457.82 586.844 3457.82 627.769C3457.82 671.852 3434.16 700.039 3398.56 700.039C3381.01 700.039 3368.55 693.104 3360.04 681.706H3359.49V740.689H3316.19V559.79L3316.23 559.755ZM3413.97 629.348C3413.97 605.967 3405.22 590.552 3386.61 590.552C3368 590.552 3358.18 607.272 3358.18 629.348C3358.18 651.424 3368.79 666.53 3387.4 666.53C3403.88 666.53 3413.97 652.454 3413.97 629.348Z" fill="#010101"/>
<path d="M3472.75 505.853H3516.59V695.782H3472.75V505.853Z" fill="#010101"/>
<path d="M3531.22 657.776C3531.22 627.769 3555.12 618.739 3583.27 615.032C3608.78 611.839 3617.81 609.161 3617.81 599.891C3617.81 591.102 3612.21 585.265 3599.2 585.265C3585.36 585.265 3578.46 591.376 3577.16 602.809H3537.3C3538.36 577.574 3557.76 556.048 3598.93 556.048C3619.39 556.048 3633.19 559.756 3643.01 567.206C3654.72 575.721 3660.28 589.007 3660.28 606.002V674.53C3660.28 685.414 3661.34 691.525 3665.05 693.928V695.782H3623.1C3620.97 692.864 3619.63 687.542 3618.57 680.642H3618.05C3610.08 692.074 3598.14 699.25 3577.68 699.25C3550.59 699.25 3531.19 684.624 3531.19 657.81L3531.22 657.776ZM3618.91 647.167V630.962C3613.31 633.88 3605.35 636.009 3596.59 638.138C3579.84 641.845 3572.94 646.103 3572.94 656.471C3572.94 667.355 3580.9 671.612 3591.54 671.612C3607.75 671.612 3618.91 661.793 3618.91 647.167Z" fill="#010101"/>
<path d="M3681.36 559.755H3723.07V578.364H3723.86C3733.96 563.738 3746.97 555.773 3765.85 555.773C3795.62 555.773 3813.13 577.025 3813.13 607.306V695.782H3769.84V616.096C3769.84 601.744 3762.66 591.925 3748.58 591.925C3734.51 591.925 3724.69 603.873 3724.69 620.628V695.816H3681.4V559.79L3681.36 559.755Z" fill="#010101"/>
<path d="M3826.76 627.494C3826.76 586.844 3855.19 555.773 3896.63 555.773C3916.02 555.773 3931.44 562.159 3943.11 572.768C3959.32 587.634 3967.28 611.289 3967.04 638.927H3869.26C3871.94 657.261 3882.03 668.659 3899.82 668.659C3911.25 668.659 3918.7 663.612 3922.41 655.132H3964.67C3961.76 667.355 3953.79 679.028 3941.81 687.267C3930.38 695.233 3916.57 699.765 3899.3 699.765C3854.4 699.765 3826.79 668.693 3826.79 627.494H3826.76ZM3923.2 613.143C3921.62 596.938 3911.49 586.569 3897.45 586.569C3880.97 586.569 3872.49 596.938 3869.57 613.143H3923.23H3923.2Z" fill="#010101"/>
<path d="M3958.87 739.35V709.309C3974.01 709.309 3981.73 709.309 3981.73 694.683V559.755H4025.03V696.846C4025.03 714.905 4021.04 724.21 4014.66 730.836C4006.97 738.526 3996.32 741.445 3983.31 741.445C3975.86 741.445 3965.53 740.655 3958.87 739.316V739.35ZM3981.7 505.853H4024.99V540.907H3981.7V505.853Z" fill="#010101"/>
<path d="M4039.38 657.776C4039.38 627.769 4063.28 618.739 4091.43 615.032C4116.94 611.839 4125.97 609.161 4125.97 599.891C4125.97 591.102 4120.37 585.265 4107.36 585.265C4093.56 585.265 4086.66 591.376 4085.32 602.809H4045.49C4046.56 577.574 4065.95 556.048 4107.12 556.048C4127.58 556.048 4141.38 559.756 4151.2 567.206C4162.91 575.721 4168.47 589.007 4168.47 606.002V674.53C4168.47 685.414 4169.54 691.525 4173.24 693.928V695.782H4131.26C4129.13 692.864 4127.79 687.542 4126.76 680.642H4126.21C4118.24 692.074 4106.29 699.25 4085.83 699.25C4058.74 699.25 4039.35 684.624 4039.35 657.81L4039.38 657.776ZM4127.03 647.167V630.962C4121.47 633.88 4113.5 636.009 4104.72 638.138C4088 641.845 4081.1 646.103 4081.1 656.471C4081.1 667.355 4089.06 671.612 4099.7 671.612C4115.91 671.612 4127.07 661.793 4127.07 647.167H4127.03Z" fill="#010101"/>
<path d="M4190.34 651.15H4235.77V695.783H4190.34V651.15Z" fill="#010101"/>
<path d="M2732.02 795.794H2780.36L2848.89 985.723H2799.48L2788.33 951.459H2721.93L2711.04 985.723H2663.77L2732.02 795.794ZM2777.44 917.71L2763.09 871.739C2759.9 861.919 2755.64 844.925 2755.64 844.925H2755.09C2755.09 844.925 2750.59 861.919 2747.4 871.739L2732.78 917.71H2777.41H2777.44Z" fill="#010101"/>
<path d="M2897.61 988.916H2939.6C2942 996.091 2949.14 1002.2 2963.49 1002.2C2981.83 1002.2 2989.52 992.624 2989.52 976.144V962.617H2988.45C2980.49 971.646 2970.12 978.307 2953.64 978.307C2923.08 978.307 2894.65 955.441 2894.65 913.761C2894.65 872.081 2918.04 845.748 2951.79 845.748C2969.84 845.748 2982.07 852.924 2990.03 864.356H2990.58V849.731H3032.02V972.47C3032.02 992.933 3024.84 1007.8 3013.96 1017.65C3002.01 1028.26 2984.19 1032.79 2964.04 1032.79C2926.58 1032.79 2901.87 1017.38 2897.61 988.95V988.916ZM2991.41 912.148C2991.41 893.814 2981.86 878.433 2963.77 878.433C2947.56 878.433 2936.95 891.72 2936.95 912.422C2936.95 933.125 2947.56 946.137 2963.77 946.137C2982.62 946.137 2991.41 931.271 2991.41 912.148Z" fill="#010101"/>
<path d="M3046.71 917.469C3046.71 876.819 3075.14 845.748 3116.58 845.748C3135.98 845.748 3151.39 852.134 3163.07 862.743C3179.27 877.609 3187.24 901.264 3186.96 928.902H3089.22C3091.86 947.236 3101.95 958.634 3119.77 958.634C3131.2 958.634 3138.62 953.587 3142.36 945.107H3184.59C3181.67 957.33 3173.71 969.003 3161.76 977.243C3150.33 985.208 3136.53 989.74 3119.26 989.74C3074.35 989.74 3046.75 958.669 3046.75 917.469H3046.71ZM3143.15 903.118C3141.57 886.913 3131.48 876.545 3117.4 876.545C3100.92 876.545 3092.44 886.913 3089.52 903.118H3143.19H3143.15Z" fill="#010101"/>
<path d="M3201.66 849.731H3243.37V868.339H3244.16C3254.26 853.713 3267.27 845.748 3286.15 845.748C3315.92 845.748 3333.43 867 3333.43 897.282V985.757H3290.13V906.071C3290.13 891.72 3282.96 881.9 3268.88 881.9C3254.8 881.9 3244.99 893.848 3244.99 910.603V985.792H3201.69V849.765L3201.66 849.731Z" fill="#010101"/>
<path d="M3361.37 949.879V876.819H3343.31V849.73H3361.37V806.711H3403.6V849.73H3428.32V876.819H3403.6V940.575C3403.6 951.218 3409.44 953.862 3418.74 953.862C3422.45 953.862 3426.71 953.621 3428.29 953.621V985.242C3424.58 986.306 3416.34 987.371 3404.67 987.371C3379.43 987.371 3361.37 979.131 3361.37 949.913V949.879Z" fill="#010101"/>
<path d="M3436.6 917.469C3436.6 876.819 3465.02 845.748 3506.46 845.748C3525.86 845.748 3541.28 852.134 3552.95 862.743C3569.15 877.609 3577.12 901.264 3576.85 928.902H3479.1C3481.74 947.236 3491.84 958.634 3509.66 958.634C3521.09 958.634 3528.5 953.587 3532.25 945.107H3574.48C3571.56 957.33 3563.59 969.003 3551.65 977.243C3540.21 985.208 3526.41 989.74 3509.14 989.74C3464.23 989.74 3436.63 958.669 3436.63 917.469H3436.6ZM3533.04 903.118C3531.46 886.913 3521.36 876.545 3507.29 876.545C3490.81 876.545 3482.33 886.913 3479.41 903.118H3533.07H3533.04Z" fill="#010101"/>
<path d="M3629.55 988.916H3671.53C3673.94 996.091 3681.08 1002.2 3695.43 1002.2C3713.76 1002.2 3721.45 992.624 3721.45 976.144V962.617H3720.39C3712.42 971.646 3702.06 978.307 3685.58 978.307C3655.02 978.307 3626.59 955.441 3626.59 913.761C3626.59 872.081 3649.97 845.748 3683.72 845.748C3701.78 845.748 3714 852.924 3721.97 864.356H3722.52V849.731H3763.96V972.47C3763.96 992.933 3756.78 1007.8 3745.9 1017.65C3733.95 1028.26 3716.13 1032.79 3695.98 1032.79C3658.52 1032.79 3633.8 1017.38 3629.55 988.95V988.916ZM3723.34 912.148C3723.34 893.814 3713.8 878.433 3695.7 878.433C3679.5 878.433 3668.89 891.72 3668.89 912.422C3668.89 933.125 3679.5 946.137 3695.7 946.137C3714.55 946.137 3723.34 931.271 3723.34 912.148Z" fill="#010101"/>
<path d="M3778.38 947.752C3778.38 917.745 3802.28 908.715 3830.43 904.973C3855.94 901.814 3864.97 899.136 3864.97 889.832C3864.97 881.043 3859.41 875.206 3846.36 875.206C3832.56 875.206 3825.66 881.318 3824.32 892.75H3784.46C3785.52 867.516 3804.92 845.989 3846.09 845.989C3866.55 845.989 3880.35 849.697 3890.17 857.147C3901.84 865.662 3907.44 878.949 3907.44 895.943V964.506C3907.44 975.389 3908.5 981.501 3912.21 983.87V985.724H3870.22C3868.09 982.805 3866.79 977.484 3865.72 970.583H3865.21C3857.25 982.016 3845.3 989.191 3824.83 989.191C3797.75 989.191 3778.35 974.565 3778.35 947.752H3778.38ZM3866.07 937.108V920.903C3860.47 923.822 3852.51 925.95 3843.75 928.079C3827 931.787 3820.1 936.044 3820.1 946.413C3820.1 957.296 3828.06 961.553 3838.67 961.553C3854.88 961.553 3866.03 951.734 3866.03 937.108H3866.07Z" fill="#010101"/>
<path d="M3928.55 849.731H3969.99V870.983H3970.78C3980.36 854.778 3991.49 847.602 4007.97 847.602C4011.95 847.602 4014.59 847.842 4016.48 848.666V885.849H4015.42C3988.88 882.141 3971.85 895.153 3971.85 924.645V985.757H3928.55V849.731Z" fill="#010101"/>
<path d="M4020.25 947.752C4020.25 917.745 4044.15 908.715 4072.3 904.973C4097.81 901.814 4106.84 899.136 4106.84 889.832C4106.84 881.043 4101.25 875.206 4088.23 875.206C4074.43 875.206 4067.53 881.318 4066.19 892.75H4026.37C4027.43 867.516 4046.83 845.989 4087.99 845.989C4108.45 845.989 4122.26 849.697 4132.08 857.147C4143.78 865.662 4149.34 878.949 4149.34 895.943V964.506C4149.34 975.389 4150.41 981.501 4154.12 983.87V985.724H4112.13C4110 982.805 4108.66 977.484 4107.63 970.583H4107.08C4099.12 982.016 4087.17 989.191 4066.71 989.191C4039.62 989.191 4020.22 974.565 4020.22 947.752H4020.25ZM4107.91 937.108V920.903C4102.34 923.822 4094.38 925.95 4085.59 928.079C4068.87 931.787 4061.97 936.044 4061.97 946.413C4061.97 957.296 4069.93 961.553 4080.58 961.553C4096.78 961.553 4107.94 951.734 4107.94 937.108H4107.91Z" fill="#010101"/>
<path d="M4170.39 849.731H4212.11V868.339H4212.9C4222.99 853.713 4236 845.748 4254.85 845.748C4284.62 845.748 4302.13 867 4302.13 897.282V985.757H4258.83V906.071C4258.83 891.72 4251.66 881.9 4237.58 881.9C4223.51 881.9 4213.69 893.848 4213.69 910.603V985.792H4170.39V849.765V849.731Z" fill="#010101"/>
<path d="M4330.11 949.879V876.819H4312.05V849.73H4330.11V806.711H4372.34V849.73H4397.06V876.819H4372.34V940.575C4372.34 951.218 4378.21 953.862 4387.48 953.862C4391.19 953.862 4395.44 953.621 4397.02 953.621V985.242C4393.31 986.306 4385.07 987.371 4373.4 987.371C4348.17 987.371 4330.11 979.131 4330.11 949.913V949.879Z" fill="#010101"/>
<path d="M4405.33 917.469C4405.33 876.819 4433.76 845.748 4475.2 845.748C4494.6 845.748 4510.01 852.134 4521.68 862.743C4537.89 877.609 4545.85 901.264 4545.58 928.902H4447.8C4450.48 947.236 4460.57 958.634 4478.36 958.634C4489.79 958.634 4497.24 953.587 4500.95 945.107H4543.18C4540.26 957.33 4532.29 969.003 4520.34 977.243C4508.91 985.208 4495.11 989.74 4477.84 989.74C4432.93 989.74 4405.33 958.669 4405.33 917.469ZM4501.77 903.118C4500.19 886.913 4490.06 876.545 4475.99 876.545C4459.51 876.545 4451.03 886.913 4448.11 903.118H4501.77Z" fill="#010101"/>
<path d="M4557.09 941.125H4602.51V985.758H4557.09V941.125Z" fill="#010101"/>
</svg>
