<svg width="2483" height="1019" viewBox="0 0 2483 1019" fill="none" xmlns="http://www.w3.org/2000/svg">
<path d="M0.18671 700.627V0.890137H253.563V659.668C253.563 723.973 292.531 762.975 362.707 762.975H685.091V994.927H325.662C111.253 994.927 0.152344 893.577 0.152344 700.627" fill="#0042C3"/>
<path d="M764.366 700.627V0.890137H1017.74V659.668C1017.74 723.973 1056.71 762.975 1126.89 762.975H1449.27V994.927H1089.84C875.433 994.927 764.332 893.577 764.332 700.627" fill="#0042C3"/>
<path d="M2482.17 646.038V915.001C2394.45 981.263 2259.97 1018.31 2125.49 1018.31C1991 1018.31 1860.4 979.34 1762.97 905.25L1668.69 995.614L1562.94 994.927L1560.16 761.121L2096.27 244.516H1608.98V0.890137H2447.08V244.516L1944.21 729.844C2004.64 757.138 2072.85 772.725 2144.95 772.725C2273.6 772.725 2400.29 725.93 2482.13 646.038" fill="#0042C3"/>
</svg>
