<svg width="242" height="177" viewBox="0 0 242 177" fill="none" xmlns="http://www.w3.org/2000/svg">
<path fill-rule="evenodd" clip-rule="evenodd" d="M6.71123 110.999H0.657227L8.42215 134.62H14.4432L22.1753 110.999H16.2858L12.6336 123.388C12.4581 123.982 12.2882 124.599 12.1236 125.238C11.9591 125.876 11.822 126.416 11.7124 126.856C11.6027 127.297 11.5479 127.528 11.5479 127.55H11.4821C11.4821 127.528 11.4272 127.302 11.3175 126.873C11.2079 126.443 11.0708 125.909 10.9063 125.271C10.7418 124.632 10.5718 124.004 10.3963 123.388L6.71123 110.999ZM24.61 133.959C25.9481 134.73 27.5274 135.126 29.3479 135.148C31.1685 135.126 32.7478 134.73 34.0859 133.959C35.4239 133.188 36.4658 132.131 37.2116 130.788C37.9574 129.444 38.3303 127.914 38.3303 126.196C38.3303 124.478 37.9574 122.947 37.2116 121.604C36.4658 120.26 35.4239 119.203 34.0859 118.432C32.7478 117.661 31.1685 117.265 29.3479 117.243C27.5274 117.265 25.9481 117.661 24.61 118.432C23.272 119.203 22.2301 120.26 21.4843 121.604C20.7385 122.947 20.3547 124.478 20.3327 126.196C20.3547 127.914 20.7385 129.444 21.4843 130.788C22.2301 132.131 23.272 133.188 24.61 133.959ZM31.9801 129.912C31.366 130.826 30.4776 131.294 29.3151 131.316C28.1525 131.294 27.2696 130.826 26.6664 129.912C26.0632 128.998 25.7616 127.759 25.7616 126.196C25.7616 124.632 26.0632 123.388 26.6664 122.463C27.2696 121.538 28.1525 121.064 29.3151 121.042C30.4776 121.064 31.366 121.538 31.9801 122.463C32.5943 123.388 32.9014 124.632 32.9014 126.196C32.9014 127.759 32.5943 128.998 31.9801 129.912ZM43.6275 133.959C44.9655 134.73 46.5448 135.126 48.3654 135.148C49.9667 135.126 51.354 134.813 52.5276 134.207C53.7011 133.601 54.6223 132.781 55.2913 131.746C55.9603 130.711 56.3168 129.532 56.3607 128.211H51.2279C50.9866 130.127 50.0105 131.096 48.2996 131.118C47.159 131.096 46.2981 130.65 45.7168 129.78C45.1355 128.91 44.8449 127.715 44.8449 126.196C44.8449 124.654 45.1355 123.443 45.7168 122.562C46.2981 121.681 47.159 121.229 48.2996 121.207C49.0673 121.207 49.6815 121.433 50.1421 121.884C50.6028 122.336 50.9099 122.947 51.0634 123.718L56.2291 123.718C55.9658 121.78 55.1433 120.222 53.7614 119.043C52.3795 117.865 50.537 117.265 48.2338 117.243C46.4571 117.265 44.9107 117.661 43.5946 118.432C42.2785 119.203 41.2531 120.26 40.5182 121.604C39.7834 122.947 39.416 124.478 39.416 126.196C39.416 127.914 39.7834 129.444 40.5182 130.788C41.2531 132.131 42.2895 133.188 43.6275 133.959ZM68.4358 121.95C69.0061 122.534 69.3461 123.333 69.4557 124.346H62.8095C62.985 123.333 63.3524 122.534 63.9117 121.95C64.4711 121.367 65.2552 121.064 66.2642 121.042C67.1416 121.064 67.8655 121.367 68.4358 121.95ZM61.6908 133.926C63.0288 134.697 64.6301 135.093 66.4945 135.115C68.6222 135.093 70.377 134.576 71.7589 133.563C72.5047 133.034 73.1188 132.428 73.6014 131.746C74.084 131.063 74.413 130.336 74.5885 129.565H69.357C68.8964 130.645 67.9642 131.206 66.5603 131.25C65.4636 131.228 64.5972 130.892 63.9611 130.243C63.325 129.593 62.9301 128.695 62.7766 127.55H74.8846C74.9065 125.81 74.6707 124.241 74.1772 122.842C73.6837 121.444 72.9324 120.271 71.9234 119.324C70.4757 117.959 68.5564 117.254 66.1655 117.21C64.4327 117.232 62.9246 117.628 61.6415 118.399C60.3583 119.17 59.3548 120.227 58.6309 121.571C57.9071 122.914 57.5342 124.434 57.5122 126.13C57.5122 127.847 57.8742 129.384 58.598 130.738C59.3219 132.093 60.3528 133.155 61.6908 133.926ZM68.7648 111.131L63.632 111.131L60.1115 115.657L64.7178 115.657L66.2313 113.477H66.2971L67.7777 115.657H72.2853L68.7648 111.131ZM92.8657 129.747C92.2844 130.551 91.4783 130.964 90.4473 130.986C89.2848 130.964 88.391 130.534 87.7658 129.697C87.1407 128.861 86.8281 127.748 86.8281 126.361C86.8281 124.951 87.1242 123.801 87.7165 122.909C88.3087 122.017 89.1861 121.56 90.3486 121.538C91.4892 121.56 92.3392 122 92.8986 122.859C93.4579 123.718 93.7376 124.885 93.7376 126.361C93.7376 127.814 93.4469 128.943 92.8657 129.747ZM86.7623 117.705H81.6296V140.203L86.9926 140.203V132.869H87.0584C87.5849 133.596 88.2429 134.157 89.0325 134.554C89.8222 134.95 90.7544 135.148 91.8292 135.148C94.0666 135.126 95.8433 134.317 97.1594 132.72C98.4755 131.124 99.1445 128.938 99.1664 126.163C99.1664 124.445 98.8758 122.914 98.2945 121.571C97.7132 120.227 96.8852 119.17 95.8104 118.399C94.7356 117.628 93.4524 117.232 91.9609 117.21C90.8202 117.21 89.8277 117.441 88.9832 117.904C88.1387 118.366 87.4313 118.983 86.861 119.754H86.7623V117.705ZM106.833 110.999L101.404 110.999V134.62L106.833 134.62V110.999ZM118.71 130.771C118.096 131.311 117.285 131.592 116.276 131.614C115.596 131.614 115.047 131.465 114.63 131.168C114.214 130.87 113.994 130.391 113.972 129.731C113.972 129.092 114.203 128.607 114.663 128.277C115.124 127.947 115.87 127.671 116.901 127.451C118.019 127.209 118.941 126.911 119.665 126.559V128.574C119.643 129.499 119.325 130.232 118.71 130.771ZM110.419 133.728C111.472 134.609 112.854 135.049 114.565 135.049C115.815 135.049 116.84 134.846 117.641 134.438C118.442 134.031 119.083 133.464 119.566 132.737H119.632C119.763 133.618 119.95 134.245 120.191 134.62H125.389V134.389C124.973 134.102 124.775 133.298 124.797 131.977V123.454C124.819 121.317 124.106 119.71 122.659 118.63C122.066 118.168 121.321 117.821 120.421 117.59C119.522 117.358 118.447 117.243 117.197 117.243C115.508 117.265 114.104 117.535 112.985 118.052C111.867 118.57 111.028 119.269 110.468 120.15C109.909 121.031 109.607 122 109.564 123.057H114.499C114.63 121.626 115.541 120.899 117.23 120.877C118.041 120.877 118.628 121.042 118.99 121.372C119.352 121.703 119.533 122.143 119.533 122.694C119.555 123.244 119.237 123.652 118.579 123.916C117.921 124.18 116.813 124.401 115.256 124.577C114.071 124.709 112.996 124.957 112.031 125.32C111.066 125.684 110.293 126.229 109.712 126.955C109.13 127.682 108.829 128.662 108.807 129.896C108.829 131.57 109.366 132.847 110.419 133.728ZM132.529 117.705H127.364V134.62H132.727V125.271C132.749 124.213 133.023 123.36 133.549 122.71C134.076 122.061 134.789 121.725 135.688 121.703C136.565 121.725 137.223 122.006 137.662 122.545C138.101 123.085 138.32 123.806 138.32 124.709V134.62H143.683V123.619C143.661 121.703 143.146 120.161 142.137 118.994C141.128 117.826 139.691 117.232 137.827 117.21C136.664 117.21 135.66 117.452 134.816 117.937C133.971 118.421 133.242 119.115 132.628 120.018H132.529V117.705ZM156.614 121.951C157.184 122.534 157.524 123.333 157.634 124.346H150.987C151.163 123.333 151.53 122.534 152.09 121.951C152.649 121.367 153.433 121.064 154.442 121.042C155.32 121.064 156.043 121.367 156.614 121.951ZM149.869 133.926C151.207 134.697 152.808 135.093 154.672 135.115C156.8 135.093 158.555 134.576 159.937 133.563C160.683 133.034 161.297 132.428 161.779 131.746C162.262 131.063 162.591 130.336 162.766 129.565H157.535C157.074 130.645 156.142 131.206 154.738 131.25C153.642 131.228 152.775 130.892 152.139 130.243C151.503 129.593 151.108 128.695 150.954 127.55H163.063C163.084 125.81 162.849 124.241 162.355 122.842C161.862 121.444 161.11 120.271 160.101 119.324C158.654 117.959 156.734 117.254 154.343 117.21C152.611 117.232 151.103 117.628 149.819 118.399C148.536 119.17 147.533 120.227 146.809 121.571C146.085 122.914 145.712 124.434 145.69 126.13C145.69 127.847 146.052 129.384 146.776 130.738C147.5 132.093 148.531 133.155 149.869 133.926ZM169.906 110.999L164.543 110.999V115.36H169.906V110.999ZM163.194 140.236C163.742 140.28 164.258 140.302 164.741 140.302C166.364 140.346 167.658 139.906 168.623 138.981C169.018 138.584 169.33 138.056 169.561 137.395C169.791 136.734 169.906 135.853 169.906 134.752V117.705L164.543 117.705L164.543 134.488C164.543 135.369 164.307 135.903 163.836 136.09C163.364 136.277 162.657 136.349 161.714 136.305V140.038C162.152 140.126 162.646 140.192 163.194 140.236ZM181.883 130.771C181.268 131.311 180.457 131.592 179.448 131.614C178.768 131.614 178.219 131.465 177.803 131.168C177.386 130.87 177.167 130.391 177.145 129.731C177.145 129.092 177.375 128.607 177.836 128.277C178.296 127.947 179.042 127.671 180.073 127.451C181.192 127.209 182.113 126.911 182.837 126.559V128.574C182.815 129.499 182.497 130.232 181.883 130.771ZM173.591 133.728C174.644 134.609 176.026 135.049 177.737 135.049C178.987 135.049 180.013 134.846 180.813 134.438C181.614 134.031 182.255 133.464 182.738 132.737H182.804C182.935 133.618 183.122 134.245 183.363 134.62H188.562V134.389C188.145 134.102 187.948 133.298 187.969 131.977V123.454C187.991 121.317 187.279 119.71 185.831 118.63C185.239 118.168 184.493 117.821 183.593 117.59C182.694 117.358 181.619 117.243 180.369 117.243C178.68 117.265 177.276 117.535 176.158 118.052C175.039 118.57 174.2 119.269 173.641 120.15C173.081 121.031 172.78 122 172.736 123.057H177.671C177.803 121.626 178.713 120.899 180.402 120.877C181.214 120.877 181.8 121.042 182.162 121.372C182.524 121.703 182.705 122.143 182.705 122.694C182.727 123.244 182.409 123.652 181.751 123.916C181.093 124.18 179.985 124.401 178.428 124.577C177.243 124.709 176.169 124.957 175.203 125.32C174.238 125.684 173.465 126.229 172.884 126.955C172.303 127.682 172.001 128.662 171.979 129.896C172.001 131.57 172.538 132.847 173.591 133.728ZM196.261 129.07H190.635V134.62L196.261 134.62V129.07ZM13.0009 156.979L14.7776 162.694H9.25004L11.0597 156.979C11.1913 156.56 11.3284 156.092 11.4709 155.575C11.6135 155.057 11.7396 154.611 11.8493 154.237C11.959 153.862 12.0138 153.664 12.0138 153.642H12.0796C12.0796 153.664 12.129 153.862 12.2277 154.237C12.3264 154.611 12.447 155.057 12.5896 155.575C12.7322 156.092 12.8693 156.56 13.0009 156.979ZM15.1395 147.53H9.15134L0.69547 171.151H6.55206L7.90105 166.889H16.1266L17.5085 171.151H23.6283L15.1395 147.53ZM40.6881 165.006C40.1288 165.799 39.2678 166.207 38.1053 166.229C37.0963 166.207 36.2957 165.821 35.7034 165.072C35.1112 164.324 34.8041 163.311 34.7822 162.033C34.8041 160.734 35.1112 159.71 35.7034 158.961C36.2957 158.212 37.0963 157.827 38.1053 157.805C39.224 157.827 40.0739 158.239 40.6552 159.043C41.2365 159.847 41.5271 160.833 41.5271 162C41.5271 163.211 41.2474 164.214 40.6881 165.006ZM32.479 175.611C33.9048 176.536 35.7912 176.998 38.1382 176.998C39.3885 176.998 40.5455 176.85 41.6094 176.552C42.6732 176.255 43.578 175.776 44.3238 175.115C45.0038 174.499 45.5467 173.728 45.9525 172.803C46.3582 171.878 46.5611 170.777 46.5611 169.499V154.237L41.4284 154.237V156.054H41.3626C40.88 155.327 40.2494 154.76 39.4707 154.352C38.692 153.945 37.7434 153.741 36.6247 153.741C34.497 153.785 32.7971 154.578 31.5248 156.12C30.2526 157.661 29.5946 159.688 29.5507 162.198C29.5726 163.938 29.9236 165.403 30.6036 166.592C31.2836 167.781 32.1774 168.684 33.2851 169.301C34.3928 169.918 35.5828 170.226 36.855 170.226C37.864 170.204 38.714 170.017 39.4049 169.664C40.0959 169.312 40.6826 168.85 41.1652 168.277H41.2968V169.962C41.2968 170.997 41.0391 171.795 40.5236 172.357C40.0081 172.919 39.1911 173.199 38.0724 173.199C37.195 173.177 36.515 173.012 36.0324 172.704C35.5499 172.395 35.2428 172.01 35.1112 171.548H29.9126C30.1978 173.331 31.0532 174.686 32.479 175.611ZM59.5575 158.482C60.1278 159.065 60.4678 159.864 60.5775 160.877H53.9312C54.1067 159.864 54.4741 159.065 55.0335 158.482C55.5928 157.898 56.377 157.595 57.386 157.573C58.2634 157.595 58.9872 157.898 59.5575 158.482ZM52.8126 170.457C54.1506 171.228 55.7518 171.625 57.6163 171.647C59.744 171.625 61.4987 171.107 62.8806 170.094C63.6264 169.565 64.2406 168.96 64.7232 168.277C65.2057 167.594 65.5348 166.867 65.7102 166.097H60.4788C60.0182 167.176 59.0859 167.737 57.6821 167.781C56.5854 167.759 55.7189 167.424 55.0828 166.774C54.4467 166.124 54.0519 165.227 53.8983 164.081H66.0064C66.0283 162.341 65.7925 160.772 65.299 159.374C64.8054 157.975 64.0542 156.802 63.0452 155.855C61.5975 154.49 59.6782 153.785 57.2873 153.741C55.5544 153.763 54.0464 154.16 52.7632 154.93C51.48 155.701 50.4765 156.758 49.7527 158.102C49.0288 159.445 48.6559 160.965 48.634 162.661C48.634 164.379 48.9959 165.915 49.7198 167.269C50.4436 168.624 51.4745 169.686 52.8126 170.457ZM72.9816 154.237H67.816V171.151H73.179L73.179 161.802C73.201 160.745 73.4752 159.891 74.0016 159.242C74.528 158.592 75.2409 158.256 76.1402 158.234C77.0176 158.256 77.6757 158.537 78.1144 159.076C78.5531 159.616 78.7724 160.337 78.7724 161.24V171.151L84.1355 171.151V160.15C84.1135 158.234 83.5981 156.692 82.5891 155.525C81.5801 154.358 80.1433 153.763 78.2789 153.741C77.1163 153.741 76.1128 153.983 75.2683 154.468C74.4238 154.952 73.6945 155.646 73.0803 156.549H72.9816V154.237ZM88.7253 170.375C89.7014 171.046 90.9901 171.371 92.5913 171.349C94.061 171.327 95.0371 171.239 95.5196 171.085V167.154C95.41 167.154 95.2454 167.159 95.0261 167.17C94.8067 167.181 94.5764 167.187 94.3352 167.187C93.7429 167.209 93.2823 167.099 92.9533 166.856C92.6242 166.614 92.4597 166.174 92.4597 165.535V157.606L95.5196 157.606V154.237H92.4597V148.885L87.2283 148.885V154.237H84.9909V157.606H87.2283V166.691C87.2502 168.475 87.7492 169.703 88.7253 170.375ZM107.924 158.482C108.494 159.065 108.834 159.864 108.944 160.877H102.297C102.473 159.864 102.84 159.065 103.4 158.482C103.959 157.898 104.743 157.595 105.752 157.573C106.63 157.595 107.353 157.898 107.924 158.482ZM101.179 170.457C102.517 171.228 104.118 171.625 105.983 171.647C108.11 171.625 109.865 171.107 111.247 170.094C111.993 169.565 112.607 168.96 113.089 168.277C113.572 167.594 113.901 166.867 114.076 166.097H108.845C108.384 167.176 107.452 167.737 106.048 167.781C104.952 167.759 104.085 167.424 103.449 166.774C102.813 166.124 102.418 165.227 102.265 164.081H114.373C114.395 162.341 114.159 160.772 113.665 159.374C113.172 157.975 112.42 156.802 111.411 155.855C109.964 154.49 108.044 153.785 105.654 153.741C103.921 153.763 102.413 154.16 101.129 154.93C99.8463 155.701 98.8428 156.758 98.1189 158.102C97.3951 159.445 97.0222 160.965 97.0002 162.661C97.0002 164.379 97.3622 165.915 98.086 167.269C98.8098 168.624 99.8408 169.686 101.179 170.457ZM131.498 165.006C130.939 165.799 130.078 166.207 128.915 166.229C127.906 166.207 127.106 165.821 126.514 165.072C125.921 164.324 125.614 163.311 125.592 162.033C125.614 160.734 125.921 159.71 126.514 158.961C127.106 158.212 127.906 157.827 128.915 157.805C130.034 157.827 130.884 158.239 131.465 159.043C132.047 159.847 132.337 160.833 132.337 162C132.337 163.211 132.058 164.214 131.498 165.006ZM123.289 175.611C124.715 176.536 126.601 176.998 128.948 176.998C130.199 176.998 131.356 176.85 132.419 176.553C133.483 176.255 134.388 175.776 135.134 175.115C135.814 174.499 136.357 173.728 136.763 172.803C137.168 171.878 137.371 170.777 137.371 169.499V154.237H132.238V156.054H132.173C131.69 155.327 131.059 154.76 130.281 154.352C129.502 153.945 128.553 153.741 127.435 153.741C125.307 153.785 123.607 154.578 122.335 156.12C121.063 157.661 120.405 159.688 120.361 162.198C120.383 163.938 120.734 165.403 121.414 166.592C122.094 167.781 122.987 168.684 124.095 169.301C125.203 169.918 126.393 170.226 127.665 170.226C128.674 170.204 129.524 170.017 130.215 169.664C130.906 169.312 131.493 168.85 131.975 168.277H132.107V169.962C132.107 170.997 131.849 171.795 131.334 172.357C130.818 172.919 130.001 173.199 128.882 173.199C128.005 173.177 127.325 173.012 126.843 172.704C126.36 172.395 126.053 172.01 125.921 171.548L120.723 171.548C121.008 173.331 121.863 174.686 123.289 175.611ZM149.315 167.302C148.701 167.842 147.889 168.123 146.88 168.145C146.2 168.145 145.652 167.996 145.235 167.699C144.818 167.402 144.599 166.922 144.577 166.262C144.577 165.623 144.807 165.139 145.268 164.808C145.728 164.478 146.474 164.203 147.505 163.982C148.624 163.74 149.545 163.443 150.269 163.09V165.105C150.247 166.031 149.929 166.763 149.315 167.302ZM141.023 170.259C142.076 171.14 143.458 171.581 145.169 171.581C146.419 171.581 147.445 171.377 148.245 170.969C149.046 170.562 149.688 169.995 150.17 169.268H150.236C150.368 170.149 150.554 170.777 150.795 171.151H155.994V170.92C155.577 170.634 155.38 169.83 155.402 168.508V159.985C155.424 157.849 154.711 156.241 153.263 155.162C152.671 154.699 151.925 154.352 151.026 154.121C150.126 153.89 149.052 153.774 147.801 153.774C146.112 153.796 144.708 154.066 143.59 154.583C142.471 155.101 141.632 155.8 141.073 156.681C140.513 157.562 140.212 158.531 140.168 159.588H145.103C145.235 158.157 146.145 157.43 147.834 157.408C148.646 157.408 149.232 157.573 149.594 157.904C149.956 158.234 150.137 158.674 150.137 159.225C150.159 159.776 149.841 160.183 149.183 160.447C148.525 160.712 147.417 160.932 145.86 161.108C144.676 161.24 143.601 161.488 142.636 161.851C141.67 162.215 140.897 162.76 140.316 163.487C139.735 164.214 139.433 165.194 139.411 166.427C139.433 168.101 139.971 169.378 141.023 170.259ZM163.101 154.237H157.968V171.151H163.331V163.553C163.353 161.725 163.841 160.409 164.795 159.605C165.749 158.801 167.06 158.509 168.727 158.73H168.859V154.104C168.639 154.016 168.288 153.972 167.806 153.972C166.797 153.972 165.925 154.204 165.19 154.666C164.455 155.129 163.792 155.866 163.199 156.88H163.101V154.237ZM179.585 167.302C178.971 167.842 178.159 168.123 177.15 168.145C176.47 168.145 175.922 167.996 175.505 167.699C175.088 167.402 174.869 166.922 174.847 166.262C174.847 165.623 175.077 165.139 175.538 164.808C175.998 164.478 176.744 164.203 177.775 163.982C178.894 163.74 179.815 163.443 180.539 163.09V165.105C180.517 166.031 180.199 166.763 179.585 167.302ZM171.293 170.259C172.346 171.14 173.728 171.581 175.439 171.581C176.689 171.581 177.715 171.377 178.515 170.969C179.316 170.562 179.958 169.995 180.44 169.268H180.506C180.638 170.149 180.824 170.777 181.065 171.151H186.264V170.92C185.847 170.634 185.65 169.83 185.672 168.508V159.985C185.694 157.849 184.981 156.241 183.533 155.162C182.941 154.699 182.195 154.352 181.296 154.121C180.396 153.89 179.322 153.774 178.071 153.774C176.382 153.796 174.978 154.066 173.86 154.583C172.741 155.101 171.902 155.8 171.343 156.681C170.783 157.562 170.482 158.531 170.438 159.588H175.373C175.505 158.157 176.415 157.43 178.104 157.408C178.916 157.408 179.503 157.573 179.864 157.904C180.226 158.234 180.407 158.674 180.407 159.225C180.429 159.776 180.111 160.183 179.453 160.447C178.795 160.712 177.687 160.932 176.13 161.108C174.946 161.24 173.871 161.488 172.906 161.851C171.94 162.215 171.167 162.76 170.586 163.487C170.005 164.214 169.703 165.194 169.681 166.427C169.703 168.101 170.241 169.378 171.293 170.259ZM193.404 154.237H188.238V171.151H193.601V161.802C193.623 160.745 193.897 159.891 194.424 159.242C194.95 158.592 195.663 158.256 196.562 158.234C197.44 158.256 198.098 158.537 198.536 159.076C198.975 159.616 199.194 160.337 199.194 161.24V171.151H204.558V160.15C204.536 158.234 204.02 156.692 203.011 155.525C202.002 154.358 200.565 153.763 198.701 153.741C197.538 153.741 196.535 153.983 195.69 154.468C194.846 154.952 194.117 155.646 193.502 156.549H193.404V154.237ZM209.476 170.375C210.452 171.046 211.741 171.371 213.342 171.349C214.812 171.327 215.788 171.239 216.271 171.085V167.154C216.161 167.154 215.997 167.159 215.777 167.17C215.558 167.181 215.328 167.187 215.086 167.187C214.494 167.209 214.033 167.099 213.704 166.856C213.375 166.614 213.211 166.174 213.211 165.535V157.606H216.271V154.237H213.211V148.885H207.979V154.237H205.742V157.606H207.979V166.691C208.001 168.475 208.5 169.703 209.476 170.375ZM228.675 158.482C229.245 159.065 229.585 159.864 229.695 160.877H223.049C223.224 159.864 223.591 159.065 224.151 158.482C224.71 157.898 225.494 157.595 226.503 157.573C227.381 157.595 228.105 157.898 228.675 158.482ZM221.93 170.457C223.268 171.228 224.869 171.625 226.734 171.647C228.861 171.625 230.616 171.107 231.998 170.094C232.744 169.565 233.358 168.96 233.841 168.277C234.323 167.594 234.652 166.867 234.828 166.097H229.596C229.135 167.176 228.203 167.737 226.799 167.781C225.703 167.759 224.836 167.424 224.2 166.774C223.564 166.124 223.169 165.227 223.016 164.081H235.124C235.146 162.341 234.91 160.772 234.416 159.374C233.923 157.975 233.172 156.802 232.163 155.855C230.715 154.49 228.796 153.785 226.405 153.741C224.672 153.763 223.164 154.16 221.881 154.93C220.597 155.701 219.594 156.758 218.87 158.102C218.146 159.445 217.773 160.965 217.751 162.661C217.751 164.379 218.113 165.915 218.837 167.269C219.561 168.624 220.592 169.687 221.93 170.457ZM242 165.601L236.374 165.601V171.151H242V165.601Z" fill="black"/>
<path d="M0 66.7087V-0.000602722H24.1567V62.8059C24.1567 68.9375 27.8724 72.6554 34.5621 72.6554H65.2978V94.7671H31.0323C10.5914 94.7671 0 85.1046 0 66.7087Z" fill="#0042C3"/>
<path d="M72.8528 66.7087V-0.000602722H97.0094V62.8059C97.0094 68.9375 100.725 72.6554 107.415 72.6554H138.151V94.7671H103.885C83.4442 94.7671 72.8528 85.1046 72.8528 66.7087Z" fill="#0042C3"/>
<path d="M236.621 61.507V87.1495C228.259 93.4682 215.437 96.999 202.616 96.999C189.423 96.999 177.344 93.2822 168.054 86.2206L159.066 94.8353L148.983 94.7681L148.72 72.4786L199.829 23.2281H153.374V0.000427246H233.276V23.2281L185.335 69.4976C191.096 72.0984 197.599 73.5853 204.474 73.5853C216.738 73.5853 228.817 69.1256 236.621 61.507Z" fill="#0042C3"/>
</svg>
