<svg width="4603" height="1033" viewBox="0 0 4603 1033" fill="none" xmlns="http://www.w3.org/2000/svg">
<path d="M0.0617101 700.115V0.378906H253.438V659.156C253.438 723.462 292.406 762.464 362.582 762.464H684.966V994.416H325.537C111.128 994.416 0.0273438 893.065 0.0273438 700.115" fill="white"/>
<path d="M764.241 700.115V0.378662H1017.62V659.156C1017.62 723.461 1056.58 762.463 1126.76 762.463H1449.15V994.415H1089.72C875.308 994.415 764.207 893.065 764.207 700.115" fill="white"/>
<path d="M2482.05 645.526V914.489C2394.33 980.751 2259.85 1017.8 2125.37 1017.8C1990.89 1017.8 1860.28 978.828 1762.85 904.738L1668.57 995.102L1562.82 994.415L1560.04 760.609L2096.15 244.004H1608.86V0.378662H2446.96V244.004L1944.09 729.332C2004.52 756.627 2072.74 772.214 2144.83 772.214C2273.48 772.214 2400.17 725.418 2482.02 645.526" fill="white"/>
<path d="M2663.5 505.758H2712.39L2742.15 605.392C2746.41 619.743 2750.91 638.867 2750.91 638.867H2751.46C2751.46 638.867 2756.23 619.469 2760.21 605.392L2789.7 505.758H2837.25L2774.84 695.687H2726.22L2663.53 505.758H2663.5Z" fill="white"/>
<path d="M2821.64 627.949C2821.64 587.024 2850.85 555.953 2894.42 555.953C2937.99 555.953 2966.93 587.024 2966.93 627.949C2966.93 668.874 2938.23 699.945 2894.42 699.945C2850.61 699.945 2821.64 668.874 2821.64 627.949ZM2923.09 627.949C2923.09 603.229 2913 586.51 2894.15 586.51C2875.3 586.51 2865.48 603.264 2865.48 627.949C2865.48 652.634 2875.3 669.114 2894.15 669.114C2913 669.114 2923.09 652.669 2923.09 627.949Z" fill="white"/>
<path d="M2975.52 627.949C2975.52 587.024 3003.67 555.953 3046.72 555.953C3083.63 555.953 3107.29 577.48 3111.27 608.002H3069.55C3066.91 595.779 3059.46 587.814 3047.24 587.814C3028.63 587.814 3019.36 603.229 3019.36 627.915C3019.36 652.6 3028.66 667.466 3047.24 667.466C3060.8 667.466 3069.04 659.501 3070.89 644.086H3112.33C3111.27 675.431 3086.31 699.876 3047.79 699.876C3003.94 699.876 2975.52 668.805 2975.52 627.88V627.949Z" fill="white"/>
<path d="M3120.09 627.435C3120.09 586.785 3148.52 555.714 3189.96 555.714C3209.35 555.714 3224.77 562.1 3236.44 572.709C3252.65 587.575 3260.61 611.23 3260.34 638.868H3162.59C3165.24 657.202 3175.33 668.601 3193.15 668.601C3204.58 668.601 3212 663.553 3215.74 655.073H3257.97C3255.05 667.296 3247.09 678.969 3235.14 687.209C3223.71 695.174 3209.9 699.706 3192.63 699.706C3147.73 699.706 3120.12 668.634 3120.12 627.435H3120.09ZM3169.49 506.824H3210.93L3239.36 543.217H3202.97L3191.02 525.673H3190.51L3178.28 543.217H3141.1L3169.53 506.824H3169.49ZM3216.5 613.084C3214.92 596.879 3204.82 586.511 3190.75 586.511C3174.27 586.511 3165.79 596.879 3162.87 613.084H3216.53H3216.5Z" fill="white"/>
<path d="M3316.23 559.694H3357.67V576.174H3358.46C3367.76 563.952 3381.05 555.712 3399.62 555.712C3435.74 555.712 3457.82 586.783 3457.82 627.708C3457.82 671.791 3434.16 699.978 3398.56 699.978C3381.02 699.978 3368.55 693.043 3360.04 681.644H3359.49V740.628H3316.2V559.728L3316.23 559.694ZM3413.98 629.287C3413.98 605.906 3405.22 590.491 3386.61 590.491C3368 590.491 3358.18 607.211 3358.18 629.287C3358.18 651.363 3368.79 666.469 3387.4 666.469C3403.88 666.469 3413.98 652.393 3413.98 629.287Z" fill="white"/>
<path d="M3472.75 505.758H3516.59V695.687H3472.75V505.758Z" fill="white"/>
<path d="M3531.23 657.715C3531.23 627.708 3555.12 618.679 3583.27 614.971C3608.78 611.778 3617.81 609.1 3617.81 599.83C3617.81 591.041 3612.22 585.204 3599.2 585.204C3585.37 585.204 3578.47 591.315 3577.16 602.748H3537.3C3538.37 577.513 3557.76 555.987 3598.93 555.987C3619.39 555.987 3633.19 559.695 3643.01 567.145C3654.72 575.66 3660.28 588.946 3660.28 605.941V674.469C3660.28 685.353 3661.35 691.464 3665.05 693.867V695.721H3623.1C3620.97 692.803 3619.63 687.482 3618.57 680.581H3618.05C3610.09 692.013 3598.14 699.189 3577.68 699.189C3550.59 699.189 3531.19 684.563 3531.19 657.749L3531.23 657.715ZM3618.91 647.072V630.866C3613.31 633.785 3605.35 635.914 3596.59 638.042C3579.84 641.75 3572.94 646.007 3572.94 656.376C3572.94 667.259 3580.9 671.517 3591.55 671.517C3607.75 671.517 3618.91 661.698 3618.91 647.072Z" fill="white"/>
<path d="M3681.36 559.694H3723.08V578.303H3723.87C3733.96 563.677 3746.97 555.712 3765.86 555.712C3795.62 555.712 3813.13 576.964 3813.13 607.245V695.721H3769.84V616.034C3769.84 601.683 3762.66 591.864 3748.59 591.864C3734.51 591.864 3724.69 603.812 3724.69 620.566V695.755H3681.4V559.728L3681.36 559.694Z" fill="white"/>
<path d="M3826.76 627.433C3826.76 586.783 3855.19 555.712 3896.63 555.712C3916.03 555.712 3931.44 562.098 3943.12 572.706C3959.32 587.572 3967.29 611.228 3967.05 638.866H3869.27C3871.94 657.199 3882.04 668.598 3899.82 668.598C3911.25 668.598 3918.71 663.551 3922.41 655.071H3964.68C3961.76 667.293 3953.79 678.966 3941.81 687.206C3930.38 695.171 3916.58 699.703 3899.31 699.703C3854.4 699.703 3826.8 668.632 3826.8 627.433H3826.76ZM3923.2 613.082C3921.62 596.877 3911.5 586.508 3897.45 586.508C3880.97 586.508 3872.49 596.877 3869.57 613.082H3923.24H3923.2Z" fill="white"/>
<path d="M3958.87 739.29V709.249C3974.01 709.249 3981.74 709.249 3981.74 694.623V559.695H4025.03V696.786C4025.03 714.845 4021.05 724.149 4014.66 730.775C4006.97 738.466 3996.33 741.384 3983.31 741.384C3975.86 741.384 3965.53 740.595 3958.87 739.256V739.29ZM3981.7 505.758H4024.99V540.812H3981.7V505.758Z" fill="white"/>
<path d="M4039.38 657.715C4039.38 627.708 4063.28 618.679 4091.43 614.971C4116.94 611.778 4125.97 609.1 4125.97 599.83C4125.97 591.041 4120.37 585.204 4107.36 585.204C4093.56 585.204 4086.66 591.315 4085.32 602.748H4045.49C4046.56 577.513 4065.96 555.987 4107.12 555.987C4127.58 555.987 4141.39 559.695 4151.21 567.145C4162.91 575.66 4168.47 588.946 4168.47 605.941V674.469C4168.47 685.353 4169.54 691.464 4173.25 693.867V695.721H4131.26C4129.13 692.803 4127.79 687.482 4126.76 680.581H4126.21C4118.25 692.013 4106.3 699.189 4085.84 699.189C4058.75 699.189 4039.35 684.563 4039.35 657.749L4039.38 657.715ZM4127.03 647.072V630.866C4121.47 633.785 4113.51 635.914 4104.72 638.042C4088 641.75 4081.1 646.007 4081.1 656.376C4081.1 667.259 4089.06 671.517 4099.71 671.517C4115.91 671.517 4127.07 661.698 4127.07 647.072H4127.03Z" fill="white"/>
<path d="M4190.35 651.089H4235.77V695.722H4190.35V651.089Z" fill="white"/>
<path d="M2732.02 795.733H2780.36L2848.89 985.662H2799.49L2788.33 951.398H2721.93L2711.05 985.662H2663.77L2732.02 795.733ZM2777.45 917.649L2763.09 871.677C2759.9 861.858 2755.64 844.863 2755.64 844.863H2755.1C2755.1 844.863 2750.6 861.858 2747.4 871.677L2732.78 917.649H2777.41H2777.45Z" fill="white"/>
<path d="M2897.61 988.854H2939.6C2942 996.029 2949.14 1002.14 2963.5 1002.14C2981.83 1002.14 2989.52 992.562 2989.52 976.082V962.555H2988.46C2980.49 971.585 2970.12 978.245 2953.64 978.245C2923.09 978.245 2894.66 955.379 2894.66 913.699C2894.66 872.019 2918.04 845.686 2951.79 845.686C2969.85 845.686 2982.07 852.862 2990.03 864.295H2990.58V849.669H3032.02V972.409C3032.02 992.871 3024.85 1007.74 3013.96 1017.59C3002.02 1028.2 2984.2 1032.73 2964.04 1032.73C2926.59 1032.73 2901.87 1017.32 2897.61 988.888V988.854ZM2991.41 912.086C2991.41 893.752 2981.86 878.371 2963.77 878.371C2947.56 878.371 2936.96 891.658 2936.96 912.361C2936.96 933.063 2947.56 946.075 2963.77 946.075C2982.62 946.075 2991.41 931.209 2991.41 912.086Z" fill="white"/>
<path d="M3046.71 917.374C3046.71 876.724 3075.14 845.653 3116.58 845.653C3135.98 845.653 3151.4 852.039 3163.07 862.647C3179.27 877.513 3187.24 901.169 3186.96 928.807H3089.22C3091.86 947.14 3101.96 958.539 3119.77 958.539C3131.21 958.539 3138.62 953.492 3142.37 945.012H3184.59C3181.68 957.234 3173.71 968.908 3161.76 977.148C3150.33 985.113 3136.53 989.644 3119.26 989.644C3074.35 989.644 3046.75 958.573 3046.75 917.374H3046.71ZM3143.16 903.057C3141.58 886.852 3131.48 876.484 3117.41 876.484C3100.93 876.484 3092.45 886.852 3089.53 903.057H3143.19H3143.16Z" fill="white"/>
<path d="M3201.66 849.635H3243.38V868.244H3244.16C3254.26 853.618 3267.27 845.653 3286.15 845.653C3315.92 845.653 3333.43 866.905 3333.43 897.186V985.662H3290.14V905.975C3290.14 891.624 3282.96 881.805 3268.88 881.805C3254.81 881.805 3244.99 893.753 3244.99 910.507V985.696H3201.7V849.67L3201.66 849.635Z" fill="white"/>
<path d="M3361.38 949.784V876.724H3343.32V849.635H3361.38V806.616H3403.61V849.635H3428.33V876.724H3403.61V940.48C3403.61 951.123 3409.44 953.766 3418.75 953.766C3422.45 953.766 3426.71 953.526 3428.29 953.526V985.147C3424.58 986.211 3416.34 987.275 3404.67 987.275C3379.44 987.275 3361.38 979.035 3361.38 949.818V949.784Z" fill="white"/>
<path d="M3436.6 917.374C3436.6 876.724 3465.03 845.653 3506.47 845.653C3525.86 845.653 3541.28 852.039 3552.95 862.647C3569.16 877.513 3577.12 901.169 3576.85 928.807H3479.1C3481.75 947.14 3491.84 958.539 3509.66 958.539C3521.09 958.539 3528.51 953.492 3532.25 945.012H3574.48C3571.56 957.234 3563.6 968.908 3551.65 977.148C3540.22 985.113 3526.41 989.644 3509.14 989.644C3464.24 989.644 3436.63 958.573 3436.63 917.374H3436.6ZM3533.04 903.057C3531.46 886.852 3521.37 876.484 3507.29 876.484C3490.81 876.484 3482.33 886.852 3479.41 903.057H3533.07H3533.04Z" fill="white"/>
<path d="M3629.55 988.854H3671.54C3673.94 996.029 3681.08 1002.14 3695.43 1002.14C3713.77 1002.14 3721.46 992.562 3721.46 976.082V962.555H3720.39C3712.43 971.585 3702.06 978.245 3685.58 978.245C3655.02 978.245 3626.6 955.379 3626.6 913.699C3626.6 872.019 3649.98 845.686 3683.73 845.686C3701.78 845.686 3714.01 852.862 3721.97 864.295H3722.52V849.669H3763.96V972.409C3763.96 992.871 3756.79 1007.74 3745.9 1017.59C3733.95 1028.2 3716.14 1032.73 3695.98 1032.73C3658.53 1032.73 3633.81 1017.32 3629.55 988.888V988.854ZM3723.35 912.086C3723.35 893.752 3713.8 878.371 3695.71 878.371C3679.5 878.371 3668.89 891.658 3668.89 912.361C3668.89 933.063 3679.5 946.075 3695.71 946.075C3714.56 946.075 3723.35 931.209 3723.35 912.086Z" fill="white"/>
<path d="M3778.39 947.657C3778.39 917.65 3802.28 908.62 3830.43 904.878C3855.94 901.719 3864.97 899.041 3864.97 889.737C3864.97 880.948 3859.41 875.111 3846.36 875.111C3832.56 875.111 3825.66 881.223 3824.32 892.655H3784.46C3785.53 867.421 3804.92 845.894 3846.09 845.894C3866.55 845.894 3880.35 849.602 3890.17 857.052C3901.85 865.567 3907.44 878.854 3907.44 895.849V964.411C3907.44 975.294 3908.51 981.406 3912.21 983.775V985.629H3870.23C3868.1 982.711 3866.79 977.389 3865.73 970.488H3865.21C3857.25 981.921 3845.3 989.096 3824.84 989.096C3797.75 989.096 3778.35 974.471 3778.35 947.657H3778.39ZM3866.07 937.048V920.843C3860.48 923.761 3852.51 925.89 3843.76 928.018C3827 931.726 3820.1 935.983 3820.1 946.352C3820.1 957.235 3828.06 961.493 3838.67 961.493C3854.88 961.493 3866.04 951.674 3866.04 937.048H3866.07Z" fill="white"/>
<path d="M3928.56 849.636H3970V870.887H3970.79C3980.36 854.682 3991.49 847.507 4007.97 847.507C4011.95 847.507 4014.59 847.747 4016.48 848.571V885.754H4015.42C3988.88 882.046 3971.85 895.058 3971.85 924.549V985.662H3928.56V849.636Z" fill="white"/>
<path d="M4020.26 947.657C4020.26 917.65 4044.15 908.62 4072.31 904.878C4097.81 901.719 4106.84 899.041 4106.84 889.737C4106.84 880.948 4101.25 875.111 4088.24 875.111C4074.43 875.111 4067.53 881.223 4066.19 892.655H4026.37C4027.43 867.421 4046.83 845.894 4088 845.894C4108.46 845.894 4122.26 849.602 4132.08 857.052C4143.79 865.567 4149.35 878.854 4149.35 895.849V964.411C4149.35 975.294 4150.41 981.406 4154.12 983.775V985.629H4112.13C4110 982.711 4108.66 977.389 4107.63 970.488H4107.08C4099.12 981.921 4087.17 989.096 4066.71 989.096C4039.62 989.096 4020.22 974.471 4020.22 947.657H4020.26ZM4107.91 937.048V920.843C4102.35 923.761 4094.38 925.89 4085.59 928.018C4068.87 931.726 4061.97 935.983 4061.97 946.352C4061.97 957.235 4069.94 961.493 4080.58 961.493C4096.79 961.493 4107.94 951.674 4107.94 937.048H4107.91Z" fill="white"/>
<path d="M4170.4 849.635H4212.11V868.244H4212.9C4222.99 853.618 4236.01 845.653 4254.85 845.653C4284.62 845.653 4302.13 866.905 4302.13 897.186V985.662H4258.84V905.975C4258.84 891.624 4251.66 881.805 4237.59 881.805C4223.51 881.805 4213.69 893.753 4213.69 910.507V985.696H4170.4V849.67V849.635Z" fill="white"/>
<path d="M4330.11 949.784V876.724H4312.05V849.635H4330.11V806.616H4372.34V849.635H4397.06V876.724H4372.34V940.48C4372.34 951.123 4378.21 953.766 4387.48 953.766C4391.19 953.766 4395.45 953.526 4397.03 953.526V985.147C4393.32 986.211 4385.08 987.275 4373.4 987.275C4348.17 987.275 4330.11 979.035 4330.11 949.818V949.784Z" fill="white"/>
<path d="M4405.33 917.374C4405.33 876.724 4433.76 845.653 4475.2 845.653C4494.6 845.653 4510.02 852.039 4521.69 862.647C4537.89 877.513 4545.86 901.169 4545.58 928.807H4447.8C4450.48 947.14 4460.58 958.539 4478.36 958.539C4489.79 958.539 4497.24 953.492 4500.95 945.012H4543.18C4540.26 957.234 4532.3 968.908 4520.35 977.148C4508.92 985.113 4495.11 989.644 4477.85 989.644C4432.94 989.644 4405.33 958.573 4405.33 917.374ZM4501.78 903.057C4500.2 886.852 4490.07 876.484 4475.99 876.484C4459.51 876.484 4451.03 886.852 4448.11 903.057H4501.78Z" fill="white"/>
<path d="M4557.09 941.03H4602.51V985.663H4557.09V941.03Z" fill="white"/>
</svg>
