<svg width="2237" height="1709" viewBox="0 0 2237 1709" fill="none" xmlns="http://www.w3.org/2000/svg">
<path d="M0 631.563V0.938477H228.347V594.656C228.347 652.609 263.47 687.766 326.711 687.766H617.269V896.784H293.339C100.114 896.784 0 805.459 0 631.529" fill="white"/>
<path d="M688.681 631.563V0.938477H917.028V594.656C917.028 652.609 952.151 687.766 1015.39 687.766H1305.95V896.784H982.02C788.795 896.784 688.681 805.459 688.681 631.529" fill="white"/>
<path d="M2236.82 582.364V824.754C2157.78 884.493 2036.55 917.864 1915.36 917.864C1794.16 917.864 1676.47 882.742 1588.65 815.964L1503.67 897.402L1408.37 896.784L1405.86 686.084L1888.99 220.497H1449.84V0.938477H2205.16V220.497L1751.97 657.896C1806.42 682.478 1867.91 696.555 1932.9 696.555C2048.84 696.555 2163 654.394 2236.78 582.364" fill="white"/>
<path d="M211.664 1100.9H268.073L302.406 1215.84C307.315 1232.39 312.534 1254.47 312.534 1254.47H313.152C313.152 1254.47 318.679 1232.08 323.28 1215.84L357.304 1100.9H412.168L340.103 1320.08H284.003L211.664 1100.9Z" fill="white"/>
<path d="M394.077 1241.9C394.077 1194.69 427.792 1158.82 478.089 1158.82C528.387 1158.82 561.758 1194.69 561.758 1241.9C561.758 1289.11 528.662 1324.99 478.089 1324.99C427.517 1324.99 394.077 1289.11 394.077 1241.9ZM511.186 1241.9C511.186 1213.4 499.547 1194.08 477.78 1194.08C456.013 1194.08 444.684 1213.37 444.684 1241.9C444.684 1270.43 456.013 1289.42 477.78 1289.42C499.547 1289.42 511.186 1270.4 511.186 1241.9Z" fill="white"/>
<path d="M571.575 1241.9C571.575 1194.69 604.054 1158.82 653.733 1158.82C696.34 1158.82 723.635 1183.64 728.235 1218.9H680.101C677.045 1204.79 668.462 1195.62 654.351 1195.62C632.893 1195.62 622.181 1213.4 622.181 1241.9C622.181 1270.4 632.893 1287.6 654.351 1287.6C669.973 1287.6 679.483 1278.4 681.646 1260.61H729.471C728.235 1296.76 699.43 1324.99 655.004 1324.99C604.397 1324.99 571.609 1289.11 571.609 1241.9H571.575Z" fill="white"/>
<path d="M738.297 1241.28C738.297 1194.38 771.085 1158.51 818.91 1158.51C841.261 1158.51 859.045 1165.85 872.538 1178.11C891.249 1195.28 900.451 1222.57 900.142 1254.43H787.324C790.414 1275.58 802.018 1288.77 822.584 1288.77C835.768 1288.77 844.351 1282.96 848.642 1273.14H897.395C894.03 1287.26 884.829 1300.75 871.027 1310.22C857.844 1319.42 841.913 1324.64 821.966 1324.64C770.158 1324.64 738.297 1288.77 738.297 1241.25V1241.28ZM795.324 1102.13H843.149L875.937 1144.12H833.948L820.146 1123.9H819.528L805.417 1144.12H762.501L795.289 1102.13H795.324ZM849.569 1224.74C847.75 1206.02 836.077 1194.08 819.837 1194.08C800.817 1194.08 791.032 1206.02 787.667 1224.74H849.569Z" fill="white"/>
<path d="M964.544 1163.14H1012.37V1182.16H1013.3C1024.01 1168.05 1039.36 1158.57 1060.81 1158.57C1102.49 1158.57 1127.97 1194.45 1127.97 1241.66C1127.97 1292.54 1100.67 1325.05 1059.61 1325.05C1039.39 1325.05 1024.97 1317.09 1015.15 1303.9H1014.53V1371.95H964.579V1163.21L964.544 1163.14ZM1077.36 1243.44C1077.36 1216.46 1067.23 1198.67 1045.78 1198.67C1024.32 1198.67 1012.99 1218 1012.99 1243.44C1012.99 1268.89 1025.24 1286.36 1046.7 1286.36C1065.72 1286.36 1077.36 1270.12 1077.36 1243.44Z" fill="white"/>
<path d="M1145.11 1100.9H1195.68V1320.08H1145.11V1100.9Z" fill="white"/>
<path d="M1212.53 1276.23C1212.53 1241.59 1240.14 1231.15 1272.61 1226.86C1302.04 1223.19 1312.47 1220.1 1312.47 1209.39C1312.47 1199.26 1306.05 1192.53 1291.02 1192.53C1275.09 1192.53 1267.12 1199.6 1265.58 1212.75H1219.6C1220.84 1183.64 1243.19 1158.82 1290.74 1158.82C1314.33 1158.82 1330.29 1163.11 1341.62 1171.69C1355.12 1181.51 1361.57 1196.82 1361.57 1216.46V1295.56C1361.57 1308.13 1362.81 1315.17 1367.1 1317.95V1320.11H1318.65C1316.22 1316.75 1314.67 1310.6 1313.44 1302.64H1312.82C1303.62 1315.82 1289.81 1324.09 1266.23 1324.09C1234.95 1324.09 1212.57 1307.24 1212.57 1276.27L1212.53 1276.23ZM1313.71 1263.98V1245.27C1307.26 1248.63 1298.09 1251.1 1287.96 1253.54C1268.63 1257.83 1260.67 1262.74 1260.67 1274.69C1260.67 1287.25 1269.87 1292.16 1282.12 1292.16C1300.84 1292.16 1313.71 1280.83 1313.71 1263.98Z" fill="white"/>
<path d="M1385.71 1163.14H1433.85V1184.6H1434.77C1446.41 1167.74 1461.45 1158.54 1483.22 1158.54C1517.55 1158.54 1537.81 1183.05 1537.81 1218V1320.08H1487.82V1228.1C1487.82 1211.55 1479.54 1200.19 1463.3 1200.19C1447.06 1200.19 1435.7 1213.99 1435.7 1233.28V1320.04H1385.75V1163.07L1385.71 1163.14Z" fill="white"/>
<path d="M1553.39 1241.28C1553.39 1194.38 1586.18 1158.51 1634.01 1158.51C1656.39 1158.51 1674.14 1165.85 1687.63 1178.11C1706.34 1195.28 1715.55 1222.57 1715.24 1254.43H1602.42C1605.51 1275.58 1617.15 1288.77 1637.68 1288.77C1650.86 1288.77 1659.45 1282.96 1663.74 1273.14H1712.49C1709.13 1287.25 1699.92 1300.75 1686.12 1310.22C1672.94 1319.42 1657.01 1324.64 1637.06 1324.64C1585.25 1324.64 1553.39 1288.77 1553.39 1241.25V1241.28ZM1664.66 1224.73C1662.84 1206.02 1651.17 1194.08 1634.93 1194.08C1615.91 1194.08 1606.13 1206.02 1602.76 1224.73H1664.66Z" fill="white"/>
<path d="M1705.76 1370.34V1335.7C1723.23 1335.7 1732.12 1335.7 1732.12 1318.84V1163.11H1782.08V1321.28C1782.08 1342.12 1777.48 1352.86 1770.13 1360.52C1761.24 1369.41 1748.98 1372.78 1733.98 1372.78C1725.4 1372.78 1713.45 1371.85 1705.76 1370.3V1370.34ZM1732.12 1100.9H1782.08V1141.37H1732.12V1100.9Z" fill="white"/>
<path d="M1798.63 1276.23C1798.63 1241.59 1826.23 1231.15 1858.71 1226.86C1888.14 1223.19 1898.57 1220.1 1898.57 1209.39C1898.57 1199.26 1892.15 1192.53 1877.11 1192.53C1861.18 1192.53 1853.22 1199.6 1851.67 1212.75H1805.7C1806.94 1183.64 1829.29 1158.82 1876.84 1158.82C1900.43 1158.82 1916.39 1163.11 1927.72 1171.69C1941.21 1181.51 1947.67 1196.82 1947.67 1216.46V1295.56C1947.67 1308.13 1948.9 1315.17 1953.2 1317.95V1320.11H1904.75C1902.31 1316.75 1900.77 1310.6 1899.53 1302.64H1898.92C1889.71 1315.82 1875.91 1324.09 1852.33 1324.09C1821.05 1324.09 1798.66 1307.24 1798.66 1276.27L1798.63 1276.23ZM1899.81 1263.98V1245.27C1893.35 1248.63 1884.19 1251.1 1874.06 1253.54C1854.73 1257.83 1846.76 1262.74 1846.76 1274.69C1846.76 1287.25 1855.97 1292.16 1868.22 1292.16C1886.93 1292.16 1899.81 1280.83 1899.81 1263.98Z" fill="white"/>
<path d="M1972.73 1268.58H2025.15V1320.08H1972.73V1268.58Z" fill="white"/>
<path d="M78.7937 1435.33H134.585L213.687 1654.51H156.66L143.786 1614.96H67.1549L54.5891 1654.51H0L78.7937 1435.33ZM131.22 1576.02L114.672 1522.98C110.998 1511.65 106.088 1492.01 106.088 1492.01H105.47C105.47 1492.01 100.252 1511.62 96.5781 1522.98L79.7207 1576.02H131.22Z" fill="white"/>
<path d="M269.752 1658.18H318.196C320.942 1666.46 329.251 1673.53 345.799 1673.53C366.948 1673.53 375.841 1662.47 375.841 1643.49V1627.87H374.605C365.403 1638.3 353.456 1645.96 334.435 1645.96C299.175 1645.96 266.388 1619.59 266.388 1571.49C266.388 1523.39 293.373 1493.01 332.272 1493.01C353.147 1493.01 367.223 1501.28 376.424 1514.46H377.042V1497.61H424.868V1639.23C424.868 1662.85 416.594 1680.02 404.028 1691.35C390.226 1703.6 369.695 1708.82 346.383 1708.82C303.158 1708.82 274.662 1691.04 269.752 1658.22V1658.18ZM377.969 1569.6C377.969 1548.45 366.914 1530.67 346.074 1530.67C327.363 1530.67 315.106 1545.98 315.106 1569.91C315.106 1593.84 327.363 1608.85 346.074 1608.85C367.841 1608.85 377.969 1591.68 377.969 1569.6Z" fill="white"/>
<path d="M441.726 1575.72C441.726 1528.82 474.514 1492.94 522.34 1492.94C544.69 1492.94 562.475 1500.29 575.967 1512.54C594.679 1529.71 603.88 1557 603.571 1588.87H490.753C493.843 1610.01 505.448 1623.2 526.013 1623.2C539.197 1623.2 547.78 1617.4 552.072 1607.58H600.824C597.46 1621.69 588.259 1635.18 574.457 1644.66C561.273 1653.86 545.343 1659.08 525.395 1659.08C473.587 1659.08 441.726 1623.2 441.726 1575.68V1575.72ZM552.999 1559.17C551.179 1540.46 539.506 1528.51 523.267 1528.51C504.246 1528.51 494.461 1540.46 491.097 1559.17H552.999Z" fill="white"/>
<path d="M620.431 1497.54H668.565V1519H669.492C681.131 1502.14 696.169 1492.94 717.936 1492.94C752.269 1492.94 772.525 1517.45 772.525 1552.4V1654.47H722.537V1562.5C722.537 1545.95 714.262 1534.59 698.023 1534.59C681.784 1534.59 670.419 1548.39 670.419 1567.68V1654.44H620.465V1497.47L620.431 1497.54Z" fill="white"/>
<path d="M804.694 1613.14V1528.85H783.854V1497.57H804.694V1447.89H853.446V1497.57H881.942V1528.85H853.446V1602.43C853.446 1614.68 860.175 1617.74 870.922 1617.74C875.213 1617.74 880.123 1617.43 881.977 1617.43V1653.93C877.685 1655.16 868.175 1656.36 854.682 1656.36C825.568 1656.36 804.728 1646.85 804.728 1613.14H804.694Z" fill="white"/>
<path d="M891.727 1575.72C891.727 1528.82 924.515 1492.94 972.34 1492.94C994.725 1492.94 1012.48 1500.29 1025.97 1512.54C1044.68 1529.71 1053.88 1557 1053.57 1588.87H940.754C943.844 1610.01 955.483 1623.2 976.014 1623.2C989.198 1623.2 997.781 1617.4 1002.07 1607.58H1050.83C1047.46 1621.69 1038.26 1635.18 1024.46 1644.66C1011.27 1653.86 995.343 1659.08 975.396 1659.08C923.588 1659.08 891.727 1623.2 891.727 1575.68V1575.72ZM1003 1559.17C1001.18 1540.46 989.507 1528.51 973.267 1528.51C954.247 1528.51 944.462 1540.46 941.098 1559.17H1003Z" fill="white"/>
<path d="M1114.27 1658.18H1162.72C1165.46 1666.46 1173.77 1673.53 1190.32 1673.53C1211.47 1673.53 1220.36 1662.47 1220.36 1643.49V1627.87H1219.12C1209.92 1638.3 1197.97 1645.96 1178.95 1645.96C1143.69 1645.96 1110.91 1619.59 1110.91 1571.49C1110.91 1523.39 1137.89 1493.01 1176.79 1493.01C1197.67 1493.01 1211.74 1501.28 1220.94 1514.46H1221.56V1497.61H1269.39V1639.23C1269.39 1662.85 1261.11 1680.02 1248.55 1691.35C1234.75 1703.6 1214.21 1708.82 1190.9 1708.82C1147.68 1708.82 1119.18 1691.04 1114.27 1658.22V1658.18ZM1222.49 1569.6C1222.49 1548.45 1211.43 1530.67 1190.59 1530.67C1171.88 1530.67 1159.63 1545.98 1159.63 1569.91C1159.63 1593.84 1171.88 1608.85 1190.59 1608.85C1212.36 1608.85 1222.49 1591.68 1222.49 1569.6Z" fill="white"/>
<path d="M1285.94 1610.67C1285.94 1576.02 1313.54 1565.59 1346.02 1561.3C1375.44 1557.62 1385.88 1554.53 1385.88 1543.82C1385.88 1533.69 1379.46 1526.96 1364.42 1526.96C1348.49 1526.96 1340.53 1534.04 1338.98 1547.18H1293.01C1294.25 1518.07 1316.6 1493.25 1364.15 1493.25C1387.73 1493.25 1403.7 1497.54 1415.03 1506.12C1428.52 1515.94 1434.98 1531.25 1434.98 1550.89V1630C1434.98 1642.56 1436.21 1649.6 1440.5 1652.38V1654.54H1392.06C1389.62 1651.18 1388.08 1645.03 1386.84 1637.07H1386.22C1377.02 1650.25 1363.22 1658.53 1339.63 1658.53C1308.36 1658.53 1285.97 1641.67 1285.97 1610.7L1285.94 1610.67ZM1387.12 1598.41V1579.7C1380.66 1583.06 1371.49 1585.53 1361.37 1587.97C1342.04 1592.26 1334.07 1597.17 1334.07 1609.12C1334.07 1621.69 1343.27 1626.6 1355.53 1626.6C1374.24 1626.6 1387.12 1615.27 1387.12 1598.41Z" fill="white"/>
<path d="M1459.14 1497.54H1506.97V1522.05H1507.9C1518.95 1503.34 1531.83 1495.07 1550.81 1495.07C1555.41 1495.07 1558.47 1495.38 1560.63 1496.3V1539.22H1559.4C1528.74 1534.93 1509.13 1549.93 1509.13 1583.99V1654.51H1459.18V1497.54H1459.14Z" fill="white"/>
<path d="M1564.89 1610.67C1564.89 1576.02 1592.49 1565.59 1624.97 1561.3C1654.4 1557.62 1664.83 1554.53 1664.83 1543.82C1664.83 1533.69 1658.41 1526.96 1643.38 1526.96C1627.45 1526.96 1619.48 1534.04 1617.94 1547.18H1571.96C1573.2 1518.07 1595.55 1493.25 1643.1 1493.25C1666.69 1493.25 1682.65 1497.54 1693.98 1506.12C1707.48 1515.94 1713.93 1531.25 1713.93 1550.89V1630C1713.93 1642.56 1715.17 1649.6 1719.46 1652.38V1654.54H1671.01C1668.58 1651.18 1667.03 1645.03 1665.8 1637.07H1665.18C1655.98 1650.25 1642.17 1658.53 1618.59 1658.53C1587.31 1658.53 1564.93 1641.67 1564.93 1610.7L1564.89 1610.67ZM1666.07 1598.41V1579.7C1659.62 1583.06 1650.45 1585.53 1640.32 1587.97C1620.99 1592.26 1613.03 1597.17 1613.03 1609.12C1613.03 1621.69 1622.23 1626.6 1634.48 1626.6C1653.19 1626.6 1666.07 1615.27 1666.07 1598.41Z" fill="white"/>
<path d="M1738.06 1497.54H1786.2V1519H1787.13C1798.76 1502.14 1813.8 1492.94 1835.57 1492.94C1869.9 1492.94 1890.16 1517.45 1890.16 1552.4V1654.47H1840.17V1562.5C1840.17 1545.95 1831.9 1534.59 1815.66 1534.59C1799.42 1534.59 1788.05 1548.39 1788.05 1567.68V1654.44H1738.1V1497.47L1738.06 1497.54Z" fill="white"/>
<path d="M1922.29 1613.14V1528.85H1901.45V1497.57H1922.29V1447.89H1971.05V1497.57H1999.54V1528.85H1971.05V1602.43C1971.05 1614.68 1977.77 1617.74 1988.52 1617.74C1992.81 1617.74 1997.72 1617.43 1999.58 1617.43V1653.93C1995.28 1655.16 1985.77 1656.36 1972.28 1656.36C1943.17 1656.36 1922.33 1646.85 1922.33 1613.14H1922.29Z" fill="white"/>
<path d="M2009.05 1575.72C2009.05 1528.82 2041.84 1492.94 2089.66 1492.94C2112.05 1492.94 2129.8 1500.29 2143.29 1512.54C2162 1529.71 2171.21 1557 2170.9 1588.87H2058.08C2061.17 1610.01 2072.81 1623.2 2093.34 1623.2C2106.52 1623.2 2115.11 1617.4 2119.4 1607.58H2168.15C2164.78 1621.69 2155.58 1635.18 2141.78 1644.66C2128.6 1653.86 2112.67 1659.08 2092.72 1659.08C2040.91 1659.08 2009.05 1623.2 2009.05 1575.68V1575.72ZM2120.32 1559.17C2118.5 1540.46 2106.83 1528.51 2090.59 1528.51C2071.57 1528.51 2061.79 1540.46 2058.42 1559.17H2120.32Z" fill="white"/>
<path d="M2184.39 1603.01H2236.82V1654.51H2184.39V1603.01Z" fill="white"/>
</svg>
