<svg width="237" height="97" viewBox="0 0 237 97" fill="none" xmlns="http://www.w3.org/2000/svg">
<path d="M0 66.7092V-0.000114441H24.1567V62.8064C24.1567 68.938 27.8724 72.6558 34.5621 72.6558H65.2978V94.7676H31.0323C10.5914 94.7676 0 85.1051 0 66.7092Z" fill="white"/>
<path d="M72.8528 66.7092V-0.000114441H97.0095V62.8064C97.0095 68.938 100.725 72.6558 107.415 72.6558H138.151V94.7676H103.885C83.4442 94.7676 72.8528 85.1051 72.8528 66.7092Z" fill="white"/>
<path d="M236.621 61.5075V87.15C228.259 93.4687 215.437 96.9995 202.616 96.9995C189.423 96.9995 177.344 93.2827 168.054 86.2211L159.066 94.8358L148.983 94.7686L148.72 72.4791L199.829 23.2286H153.374V0.000915527H233.276V23.2286L185.335 69.498C191.096 72.0989 197.599 73.5858 204.474 73.5858C216.738 73.5858 228.817 69.1261 236.621 61.5075Z" fill="white"/>
</svg>
