<svg width="2237" height="1708" viewBox="0 0 2237 1708" fill="none" xmlns="http://www.w3.org/2000/svg">
<path d="M0 630.625V0H228.347V593.717C228.347 651.671 263.47 686.827 326.711 686.827H617.269V895.845H293.339C100.114 895.88 0 804.52 0 630.625Z" fill="#0042C3"/>
<path d="M688.681 630.625V0H917.028V593.717C917.028 651.671 952.151 686.827 1015.39 686.827H1305.95V895.845H982.02C788.795 895.845 688.681 804.52 688.681 630.59" fill="#0042C3"/>
<path d="M2236.82 581.426V823.815C2157.78 883.554 2036.55 916.926 1915.36 916.926C1794.16 916.926 1676.47 881.803 1588.65 815.026L1503.67 896.463L1408.37 895.845L1405.86 685.145L1888.99 219.558H1449.84V0H2205.16V219.558L1751.97 656.958C1806.42 681.54 1867.91 695.617 1932.9 695.617C2048.84 695.617 2163 653.456 2236.78 581.426" fill="#0042C3"/>
<path d="M211.664 1099.95H268.073L302.406 1214.9C307.315 1231.45 312.534 1253.52 312.534 1253.52H313.152C313.152 1253.52 318.679 1231.14 323.28 1214.9L357.304 1099.95H412.168L340.103 1319.13H284.003L211.664 1099.95Z" fill="#010100"/>
<path d="M394.077 1240.96C394.077 1193.75 427.792 1157.87 478.089 1157.87C528.387 1157.87 561.758 1193.75 561.758 1240.96C561.758 1288.17 528.662 1324.04 478.089 1324.04C427.517 1324.04 394.077 1288.17 394.077 1240.96ZM511.186 1240.96C511.186 1212.46 499.547 1193.13 477.78 1193.13C456.013 1193.13 444.684 1212.43 444.684 1240.96C444.684 1269.49 456.013 1288.48 477.78 1288.48C499.547 1288.48 511.186 1269.46 511.186 1240.96Z" fill="#010100"/>
<path d="M571.575 1240.96C571.575 1193.75 604.054 1157.87 653.733 1157.87C696.34 1157.87 723.635 1182.7 728.235 1217.96H680.101C677.045 1203.85 668.462 1194.68 654.351 1194.68C632.893 1194.68 622.181 1212.46 622.181 1240.96C622.181 1269.46 632.893 1286.66 654.351 1286.66C669.973 1286.66 679.483 1277.45 681.646 1259.67H729.471C728.235 1295.82 699.43 1324.04 655.004 1324.04C604.397 1324.04 571.609 1288.17 571.609 1240.96H571.575Z" fill="#010100"/>
<path d="M738.297 1240.38C738.297 1193.48 771.085 1157.6 818.91 1157.6C841.261 1157.6 859.045 1164.95 872.538 1177.2C891.249 1194.37 900.451 1221.66 900.142 1253.53H787.324C790.414 1274.67 802.018 1287.86 822.584 1287.86C835.768 1287.86 844.351 1282.06 848.642 1272.24H897.395C894.03 1286.35 884.829 1299.84 871.027 1309.32C857.844 1318.52 841.913 1323.74 821.966 1323.74C770.158 1323.74 738.297 1287.86 738.297 1240.34V1240.38ZM795.324 1101.19H843.149L875.937 1143.18H833.948L820.146 1122.96H819.528L805.417 1143.18H762.501L795.289 1101.19H795.324ZM849.569 1223.83C847.75 1205.12 836.077 1193.17 819.837 1193.17C800.817 1193.17 791.032 1205.12 787.667 1223.83H849.569Z" fill="#010100"/>
<path d="M964.544 1162.2H1012.37V1181.22H1013.3C1024.01 1167.11 1039.36 1157.63 1060.81 1157.63C1102.49 1157.63 1127.97 1193.51 1127.97 1240.72C1127.97 1291.6 1100.67 1324.11 1059.61 1324.11C1039.39 1324.11 1024.97 1316.15 1015.15 1302.96H1014.53V1371.01H964.579V1162.27L964.544 1162.2ZM1077.36 1242.5C1077.36 1215.52 1067.23 1197.73 1045.78 1197.73C1024.32 1197.73 1012.99 1217.06 1012.99 1242.5C1012.99 1267.94 1025.24 1285.42 1046.7 1285.42C1065.72 1285.42 1077.36 1269.18 1077.36 1242.5Z" fill="#010100"/>
<path d="M1145.11 1099.95H1195.68V1319.13H1145.11V1099.95Z" fill="#010100"/>
<path d="M1212.53 1275.32C1212.53 1240.68 1240.14 1230.25 1272.61 1225.95C1302.04 1222.28 1312.47 1219.19 1312.47 1208.48C1312.47 1198.35 1306.05 1191.62 1291.02 1191.62C1275.09 1191.62 1267.12 1198.69 1265.58 1211.84H1219.6C1220.84 1182.73 1243.19 1157.91 1290.74 1157.91C1314.33 1157.91 1330.29 1162.2 1341.62 1170.78C1355.12 1180.6 1361.57 1195.91 1361.57 1215.55V1294.65C1361.57 1307.22 1362.81 1314.26 1367.1 1317.04V1319.2H1318.65C1316.22 1315.84 1314.67 1309.69 1313.44 1301.73H1312.82C1303.62 1314.91 1289.81 1323.18 1266.23 1323.18C1234.95 1323.18 1212.57 1306.33 1212.57 1275.36L1212.53 1275.32ZM1313.71 1263.07V1244.36C1307.26 1247.72 1298.09 1250.19 1287.96 1252.63C1268.63 1256.92 1260.67 1261.83 1260.67 1273.78C1260.67 1286.35 1269.87 1291.26 1282.12 1291.26C1300.84 1291.26 1313.71 1279.93 1313.71 1263.07Z" fill="#010100"/>
<path d="M1385.71 1162.2H1433.85V1183.66H1434.77C1446.41 1166.8 1461.45 1157.6 1483.22 1157.6C1517.55 1157.6 1537.81 1182.11 1537.81 1217.06V1319.13H1487.82V1227.16C1487.82 1210.61 1479.54 1199.24 1463.3 1199.24C1447.06 1199.24 1435.7 1213.05 1435.7 1232.34V1319.1H1385.75V1162.13L1385.71 1162.2Z" fill="#010100"/>
<path d="M1553.39 1240.37C1553.39 1193.48 1586.18 1157.6 1634.01 1157.6C1656.39 1157.6 1674.14 1164.95 1687.63 1177.2C1706.34 1194.37 1715.55 1221.66 1715.24 1253.52H1602.42C1605.51 1274.67 1617.15 1287.86 1637.68 1287.86C1650.86 1287.86 1659.45 1282.05 1663.74 1272.24H1712.49C1709.13 1286.35 1699.92 1299.84 1686.12 1309.32C1672.94 1318.52 1657.01 1323.73 1637.06 1323.73C1585.25 1323.73 1553.39 1287.86 1553.39 1240.34V1240.37ZM1664.66 1223.83C1662.84 1205.12 1651.17 1193.17 1634.93 1193.17C1615.91 1193.17 1606.13 1205.12 1602.76 1223.83H1664.66Z" fill="#010100"/>
<path d="M1705.76 1369.43V1334.79C1723.23 1334.79 1732.12 1334.79 1732.12 1317.93V1162.2H1782.08V1320.37C1782.08 1341.21 1777.48 1351.96 1770.13 1359.61C1761.24 1368.5 1748.98 1371.87 1733.98 1371.87C1725.4 1371.87 1713.45 1370.94 1705.76 1369.4V1369.43ZM1732.12 1099.95H1782.08V1140.43H1732.12V1099.95Z" fill="#010100"/>
<path d="M1798.63 1275.32C1798.63 1240.68 1826.23 1230.25 1858.71 1225.95C1888.14 1222.28 1898.57 1219.19 1898.57 1208.48C1898.57 1198.35 1892.15 1191.62 1877.11 1191.62C1861.18 1191.62 1853.22 1198.69 1851.67 1211.84H1805.7C1806.94 1182.73 1829.29 1157.91 1876.84 1157.91C1900.43 1157.91 1916.39 1162.2 1927.72 1170.78C1941.21 1180.6 1947.67 1195.91 1947.67 1215.55V1294.65C1947.67 1307.22 1948.9 1314.26 1953.2 1317.04V1319.2H1904.75C1902.31 1315.84 1900.77 1309.69 1899.53 1301.73H1898.92C1889.71 1314.91 1875.91 1323.18 1852.33 1323.18C1821.05 1323.18 1798.66 1306.33 1798.66 1275.36L1798.63 1275.32ZM1899.81 1263.07V1244.36C1893.35 1247.72 1884.19 1250.19 1874.06 1252.63C1854.73 1256.92 1846.76 1261.83 1846.76 1273.78C1846.76 1286.35 1855.97 1291.26 1868.22 1291.26C1886.93 1291.26 1899.81 1279.93 1899.81 1263.07Z" fill="#010100"/>
<path d="M1972.73 1267.63H2025.15V1319.13H1972.73V1267.63Z" fill="#010100"/>
<path d="M78.7937 1434.39H134.585L213.687 1653.57H156.66L143.786 1614.02H67.1549L54.5891 1653.57H0L78.7937 1434.39ZM131.22 1575.12L114.672 1522.08C110.998 1510.75 106.088 1491.11 106.088 1491.11H105.47C105.47 1491.11 100.252 1510.71 96.5781 1522.08L79.7207 1575.12H131.22Z" fill="#010100"/>
<path d="M269.752 1657.24H318.196C320.942 1665.52 329.251 1672.59 345.799 1672.59C366.948 1672.59 375.841 1661.53 375.841 1642.55V1626.93H374.605C365.403 1637.36 353.456 1645.02 334.435 1645.02C299.175 1645.02 266.388 1618.65 266.388 1570.55C266.388 1522.45 293.373 1492.07 332.272 1492.07C353.147 1492.07 367.223 1500.34 376.424 1513.53H377.042V1496.67H424.868V1638.29C424.868 1661.91 416.594 1679.08 404.028 1690.41C390.226 1702.67 369.695 1707.88 346.383 1707.88C303.158 1707.88 274.662 1690.1 269.752 1657.28V1657.24ZM377.969 1568.66C377.969 1547.52 366.914 1529.73 346.074 1529.73C327.363 1529.73 315.106 1545.04 315.106 1568.97C315.106 1592.9 327.363 1607.91 346.074 1607.91C367.841 1607.91 377.969 1590.74 377.969 1568.66Z" fill="#010100"/>
<path d="M441.726 1574.81C441.726 1527.91 474.514 1492.03 522.34 1492.03C544.69 1492.03 562.475 1499.38 575.967 1511.64C594.679 1528.81 603.88 1556.1 603.571 1587.96H490.753C493.843 1609.11 505.448 1622.29 526.013 1622.29C539.197 1622.29 547.78 1616.49 552.072 1606.67H600.824C597.46 1620.78 588.259 1634.28 574.457 1643.75C561.273 1652.95 545.343 1658.17 525.395 1658.17C473.587 1658.17 441.726 1622.29 441.726 1574.78V1574.81ZM552.999 1558.26C551.179 1539.55 539.506 1527.6 523.267 1527.6C504.246 1527.6 494.461 1539.55 491.097 1558.26H552.999Z" fill="#010100"/>
<path d="M620.431 1496.64H668.565V1518.09H669.492C681.131 1501.24 696.169 1492.03 717.936 1492.03C752.269 1492.03 772.525 1516.55 772.525 1551.5V1653.57H722.537V1561.59C722.537 1545.04 714.262 1533.68 698.023 1533.68C681.784 1533.68 670.419 1547.48 670.419 1566.78V1653.54H620.465V1496.57L620.431 1496.64Z" fill="#010100"/>
<path d="M804.694 1612.2V1527.91H783.854V1496.64H804.694V1446.96H853.446V1496.64H881.942V1527.91H853.446V1601.49C853.446 1613.74 860.175 1616.8 870.922 1616.8C875.213 1616.8 880.123 1616.49 881.977 1616.49V1652.99C877.685 1654.22 868.175 1655.42 854.682 1655.42C825.568 1655.42 804.728 1645.91 804.728 1612.2H804.694Z" fill="#010100"/>
<path d="M891.727 1574.81C891.727 1527.91 924.515 1492.03 972.34 1492.03C994.725 1492.03 1012.48 1499.38 1025.97 1511.64C1044.68 1528.81 1053.88 1556.1 1053.57 1587.96H940.754C943.844 1609.11 955.483 1622.29 976.014 1622.29C989.198 1622.29 997.781 1616.49 1002.07 1606.67H1050.83C1047.46 1620.78 1038.26 1634.28 1024.46 1643.75C1011.27 1652.95 995.343 1658.17 975.396 1658.17C923.588 1658.17 891.727 1622.29 891.727 1574.78V1574.81ZM1003 1558.26C1001.18 1539.55 989.507 1527.6 973.267 1527.6C954.247 1527.6 944.462 1539.55 941.098 1558.26H1003Z" fill="#010100"/>
<path d="M1114.27 1657.24H1162.72C1165.46 1665.52 1173.77 1672.59 1190.32 1672.59C1211.47 1672.59 1220.36 1661.53 1220.36 1642.55V1626.93H1219.12C1209.92 1637.36 1197.97 1645.02 1178.95 1645.02C1143.69 1645.02 1110.91 1618.65 1110.91 1570.55C1110.91 1522.45 1137.89 1492.07 1176.79 1492.07C1197.67 1492.07 1211.74 1500.34 1220.94 1513.53H1221.56V1496.67H1269.39V1638.29C1269.39 1661.91 1261.11 1679.08 1248.55 1690.41C1234.75 1702.67 1214.21 1707.88 1190.9 1707.88C1147.68 1707.88 1119.18 1690.1 1114.27 1657.28V1657.24ZM1222.49 1568.66C1222.49 1547.52 1211.43 1529.73 1190.59 1529.73C1171.88 1529.73 1159.63 1545.04 1159.63 1568.97C1159.63 1592.9 1171.88 1607.91 1190.59 1607.91C1212.36 1607.91 1222.49 1590.74 1222.49 1568.66Z" fill="#010100"/>
<path d="M1285.94 1609.76C1285.94 1575.12 1313.54 1564.68 1346.02 1560.39C1375.44 1556.72 1385.88 1553.63 1385.88 1542.91C1385.88 1532.79 1379.46 1526.06 1364.42 1526.06C1348.49 1526.06 1340.53 1533.13 1338.98 1546.28H1293.01C1294.25 1517.17 1316.6 1492.34 1364.15 1492.34C1387.73 1492.34 1403.7 1496.63 1415.03 1505.22C1428.52 1515.04 1434.98 1530.35 1434.98 1549.99V1629.09C1434.98 1641.66 1436.21 1648.69 1440.5 1651.48V1653.64H1392.06C1389.62 1650.27 1388.08 1644.13 1386.84 1636.16H1386.22C1377.02 1649.35 1363.22 1657.62 1339.63 1657.62C1308.36 1657.62 1285.97 1640.76 1285.97 1609.8L1285.94 1609.76ZM1387.12 1597.47V1578.76C1380.66 1582.12 1371.49 1584.59 1361.37 1587.03C1342.04 1591.32 1334.07 1596.23 1334.07 1608.18C1334.07 1620.75 1343.27 1625.66 1355.53 1625.66C1374.24 1625.66 1387.12 1614.33 1387.12 1597.47Z" fill="#010100"/>
<path d="M1459.14 1496.64H1506.97V1521.15H1507.9C1518.95 1502.44 1531.83 1494.16 1550.81 1494.16C1555.41 1494.16 1558.47 1494.47 1560.63 1495.4V1538.32H1559.4C1528.74 1534.02 1509.13 1549.03 1509.13 1583.09V1653.61H1459.18V1496.64H1459.14Z" fill="#010100"/>
<path d="M1564.89 1609.76C1564.89 1575.12 1592.49 1564.68 1624.97 1560.39C1654.4 1556.72 1664.83 1553.63 1664.83 1542.91C1664.83 1532.79 1658.41 1526.06 1643.38 1526.06C1627.45 1526.06 1619.48 1533.13 1617.94 1546.28H1571.96C1573.2 1517.17 1595.55 1492.34 1643.1 1492.34C1666.69 1492.34 1682.65 1496.63 1693.98 1505.22C1707.48 1515.04 1713.93 1530.35 1713.93 1549.99V1629.09C1713.93 1641.66 1715.17 1648.69 1719.46 1651.48V1653.64H1671.01C1668.58 1650.27 1667.03 1644.13 1665.8 1636.16H1665.18C1655.98 1649.35 1642.17 1657.62 1618.59 1657.62C1587.31 1657.62 1564.93 1640.76 1564.93 1609.8L1564.89 1609.76ZM1666.07 1597.47V1578.76C1659.62 1582.12 1650.45 1584.59 1640.32 1587.03C1620.99 1591.32 1613.03 1596.23 1613.03 1608.18C1613.03 1620.75 1622.23 1625.66 1634.48 1625.66C1653.19 1625.66 1666.07 1614.33 1666.07 1597.47Z" fill="#010100"/>
<path d="M1738.06 1496.64H1786.2V1518.09H1787.13C1798.76 1501.24 1813.8 1492.03 1835.57 1492.03C1869.9 1492.03 1890.16 1516.55 1890.16 1551.5V1653.57H1840.17V1561.59C1840.17 1545.04 1831.9 1533.68 1815.66 1533.68C1799.42 1533.68 1788.05 1547.48 1788.05 1566.78V1653.54H1738.1V1496.57L1738.06 1496.64Z" fill="#010100"/>
<path d="M1922.29 1612.2V1527.91H1901.45V1496.64H1922.29V1446.96H1971.05V1496.64H1999.54V1527.91H1971.05V1601.49C1971.05 1613.74 1977.77 1616.8 1988.52 1616.8C1992.81 1616.8 1997.72 1616.49 1999.58 1616.49V1652.99C1995.28 1654.22 1985.77 1655.42 1972.28 1655.42C1943.17 1655.42 1922.33 1645.91 1922.33 1612.2H1922.29Z" fill="#010100"/>
<path d="M2009.05 1574.81C2009.05 1527.91 2041.84 1492.03 2089.66 1492.03C2112.05 1492.03 2129.8 1499.38 2143.29 1511.64C2162 1528.81 2171.21 1556.1 2170.9 1587.96H2058.08C2061.17 1609.11 2072.81 1622.29 2093.34 1622.29C2106.52 1622.29 2115.11 1616.49 2119.4 1606.67H2168.15C2164.78 1620.78 2155.58 1634.28 2141.78 1643.75C2128.6 1652.95 2112.67 1658.17 2092.72 1658.17C2040.91 1658.17 2009.05 1622.29 2009.05 1574.78V1574.81ZM2120.32 1558.26C2118.5 1539.55 2106.83 1527.6 2090.59 1527.6C2071.57 1527.6 2061.79 1539.55 2058.42 1558.26H2120.32Z" fill="#010100"/>
<path d="M2184.39 1602.07H2236.82V1653.57H2184.39V1602.07Z" fill="#010100"/>
</svg>
