<svg width="2483" height="1019" viewBox="0 0 2483 1019" fill="none" xmlns="http://www.w3.org/2000/svg">
<path d="M0.18671 700.532V0.794922H253.563V659.572C253.563 723.878 292.531 762.88 362.707 762.88H685.091V994.832H325.662C111.253 994.832 0.152344 893.482 0.152344 700.532" fill="white"/>
<path d="M764.366 700.532V0.795166H1017.74V659.573C1017.74 723.878 1056.71 762.88 1126.89 762.88H1449.27V994.832H1089.84C875.433 994.832 764.332 893.482 764.332 700.532" fill="white"/>
<path d="M2482.17 645.976V914.939C2394.45 981.201 2259.97 1018.25 2125.49 1018.25C1991 1018.25 1860.4 979.279 1762.97 905.189L1668.69 995.552L1562.94 994.866L1560.16 761.06L2096.27 244.454H1608.98V0.828613H2447.08V244.454L1944.21 729.783C2004.64 757.077 2072.85 772.664 2144.95 772.664C2273.6 772.664 2400.29 725.868 2482.13 645.976" fill="white"/>
</svg>
